<?xml version="1.0" encoding="UTF-8" standalone="no"?>
<!-- Created with Inkscape (http://www.inkscape.org/) -->

<svg
   xmlns:dc="http://purl.org/dc/elements/1.1/"
   xmlns:cc="http://creativecommons.org/ns#"
   xmlns:rdf="http://www.w3.org/1999/02/22-rdf-syntax-ns#"
   xmlns:svg="http://www.w3.org/2000/svg"
   xmlns="http://www.w3.org/2000/svg"
   xmlns:sodipodi="http://sodipodi.sourceforge.net/DTD/sodipodi-0.dtd"
   xmlns:inkscape="http://www.inkscape.org/namespaces/inkscape"
   width="210mm"
   height="297mm"
   id="svg2"
   version="1.1"
   inkscape:version="0.48.4 r9939"
   sodipodi:docname="asdasdasas.svg">
  <defs
     id="defs4">
    <filter
       inkscape:collect="always"
       id="filter4180"
       x="-0.078974506"
       width="1.157949"
       y="-0.24988948"
       height="1.499779">
      <feGaussianBlur
         inkscape:collect="always"
         stdDeviation="52.929332"
         id="feGaussianBlur4182" />
    </filter>
    <filter
       inkscape:collect="always"
       id="filter4326"
       x="-0.1409188"
       width="1.2818376"
       y="-0.14372775"
       height="1.2874555">
      <feGaussianBlur
         inkscape:collect="always"
         stdDeviation="26.724125"
         id="feGaussianBlur4328" />
    </filter>
    <filter
       inkscape:collect="always"
       id="filter4330"
       x="-0.16209757"
       width="1.3241951"
       y="-0.1977045"
       height="1.395409">
      <feGaussianBlur
         inkscape:collect="always"
         stdDeviation="26.724125"
         id="feGaussianBlur4332" />
    </filter>
    <filter
       inkscape:collect="always"
       id="filter4334"
       x="-0.12316399"
       width="1.246328"
       y="-0.17954947"
       height="1.3590989">
      <feGaussianBlur
         inkscape:collect="always"
         stdDeviation="26.724125"
         id="feGaussianBlur4336" />
    </filter>
    <filter
       inkscape:collect="always"
       id="filter4338"
       x="-0.10021542"
       width="1.2004308"
       y="-0.091133411"
       height="1.1822668">
      <feGaussianBlur
         inkscape:collect="always"
         stdDeviation="26.724125"
         id="feGaussianBlur4340" />
    </filter>
    <filter
       inkscape:collect="always"
       id="filter4342"
       x="-0.15472418"
       width="1.3094484"
       y="-0.18023823"
       height="1.3604765">
      <feGaussianBlur
         inkscape:collect="always"
         stdDeviation="26.724125"
         id="feGaussianBlur4344" />
    </filter>
    <filter
       inkscape:collect="always"
       id="filter4346">
      <feGaussianBlur
         inkscape:collect="always"
         stdDeviation="4.3995136"
         id="feGaussianBlur4348" />
    </filter>
    <filter
       inkscape:collect="always"
       id="filter4580">
      <feGaussianBlur
         inkscape:collect="always"
         stdDeviation="5.5599501"
         id="feGaussianBlur4582" />
    </filter>
    <filter
       inkscape:collect="always"
       id="filter4610"
       x="-0.148746"
       width="1.297492"
       y="-0.085111075"
       height="1.1702222">
      <feGaussianBlur
         inkscape:collect="always"
         stdDeviation="18.546851"
         id="feGaussianBlur4612" />
    </filter>
    <filter
       inkscape:collect="always"
       id="filter4624"
       x="-0.20392381"
       width="1.4078476"
       y="-0.099268538"
       height="1.1985371">
      <feGaussianBlur
         inkscape:collect="always"
         stdDeviation="28.976356"
         id="feGaussianBlur4626" />
    </filter>
  </defs>
  <sodipodi:namedview
     id="base"
     pagecolor="#ffffff"
     bordercolor="#666666"
     borderopacity="1.0"
     inkscape:pageopacity="0.0"
     inkscape:pageshadow="2"
     inkscape:zoom="0.50000001"
     inkscape:cx="193.30707"
     inkscape:cy="583.67428"
     inkscape:document-units="px"
     inkscape:current-layer="layer1"
     showgrid="false"
     inkscape:window-width="1213"
     inkscape:window-height="1000"
     inkscape:window-x="67"
     inkscape:window-y="24"
     inkscape:window-maximized="1" />
  <metadata
     id="metadata7">
    <rdf:RDF>
      <cc:Work
         rdf:about="">
        <dc:format>image/svg+xml</dc:format>
        <dc:type
           rdf:resource="http://purl.org/dc/dcmitype/StillImage" />
        <dc:title />
      </cc:Work>
    </rdf:RDF>
  </metadata>
  <g
     inkscape:label="Capa 1"
     inkscape:groupmode="layer"
     id="layer1">
    <g
       id="g4628"
       transform="matrix(0.23975461,0,0,0.23975461,-666.31999,430.44657)">
      <path
         transform="matrix(-1,0,0,1,7169.5581,0)"
         inkscape:connector-curvature="0"
         id="path4618"
         d="m 3411.7371,167.18206 c 0,0 394.5375,295.90307 159.3325,422.35737 -235.205,126.45431 161.8615,265.55404 161.8615,265.55404 0,0 -207.3851,-169.44876 -156.8034,-209.91414 50.5818,-40.46538 212.4433,-146.68699 169.4488,-202.32689 -42.9945,-55.63989 -311.0776,-288.31581 -311.0776,-288.31581 z"
         style="fill:#000000;fill-opacity:1;fill-rule:evenodd;stroke:none;filter:url(#filter4624)" />
      <path
         transform="matrix(-1,0,0,1,9308.5117,17.703603)"
         sodipodi:nodetypes="cssscsscsc"
         inkscape:connector-curvature="0"
         id="path4596"
         d="m 4721.8037,392.27071 c -12.6455,32.87812 -149.2161,247.85044 -98.6344,343.95571 50.5817,96.10522 293.374,111.27982 290.8449,0 -2.5291,-111.27979 -70.8144,-192.21054 -111.2798,-156.80334 -40.4654,35.40721 -106.2216,118.86705 -106.2216,118.86705 0,0 80.9308,-80.93076 113.8089,-70.81441 32.8781,10.11634 75.8726,103.69253 48.0526,111.27978 -27.8199,7.58726 -96.1053,96.10524 -214.9723,-20.23268 0,0 70.8145,-199.79781 85.989,-240.26318 15.1745,-40.46538 -7.5873,-85.98893 -7.5873,-85.98893 z"
         style="fill:#000000;fill-opacity:1;fill-rule:evenodd;stroke:none;filter:url(#filter4610)" />
      <path
         transform="matrix(0.21281994,0.80165092,0.80165092,-0.21281994,3757.5797,-4107.8421)"
         sodipodi:nodetypes="cssscssssc"
         inkscape:connector-curvature="0"
         id="path4204"
         d="m 5328.7844,207.64743 c 0,0 -268.0831,371.77565 -60.6981,419.82829 207.3851,48.05263 269.2595,137.39813 349.0139,22.76177 61.9134,-88.99239 46.119,-189.98285 14.2077,-252.37264 -31.9113,-62.38979 -208.9227,-63.41715 -214.0056,100.62748 42.368,-90.05478 120.008,-107.45578 147.2876,-45.90609 27.2796,61.54969 44.6642,131.23567 -3.1296,195.12216 -29.1415,38.95376 -144.1579,35.40721 -230.1468,-85.98892 -85.989,-121.39613 -40.4654,-214.97232 10.1163,-270.61221 50.5817,-55.63989 -12.6454,-83.45984 -12.6454,-83.45984 z"
         style="fill:#000000;fill-opacity:1;fill-rule:evenodd;stroke:none;filter:url(#filter4326)" />
      <path
         style="fill:#000000;fill-opacity:1;fill-rule:evenodd;stroke:none;filter:url(#filter4334)"
         d="m 4301.9753,-50.319347 c 0,0 -108.7507,-278.199473 37.9363,-260.495873 146.687,17.70361 96.1053,118.86705 169.4488,91.0471 73.3435,-27.81994 -121.3961,-91.0471 10.1164,-151.74516 131.5124,-60.69807 280.7285,-50.58172 263.0249,75.87258 -17.7036,126.4543 -40.4654,209.914148 -91.0471,189.68146 -50.5817,-20.23269 -68.2853,-91.0471 -68.2853,-91.0471 0,0 48.0526,70.81441 70.8144,58.16898 22.7618,-12.64543 75.8726,-166.91968 7.5872,-207.38506 -68.2853,-40.46538 -187.1523,-7.58726 -171.9778,25.29086 15.1745,32.87812 17.7036,48.05263 30.349,106.22161 12.6455,58.16898 -101.1634,88.51802 -123.9252,50.58173 -22.7618,-37.9363 -65.7562,-108.75071 -65.7562,-108.75071 0,0 -106.2216,2.52909 -60.6981,96.10528 45.5236,93.576185 -7.5873,126.454303 -7.5873,126.454303 z"
         id="path4588"
         inkscape:connector-curvature="0"
         transform="matrix(-0.98805514,-0.15410072,0.15410072,-0.98805514,8521.4642,1036.6592)" />
      <path
         transform="matrix(0.48112424,-0.87665243,-0.87665243,-0.48112424,3181.0997,3599.2101)"
         style="fill:#000000;fill-opacity:1;fill-rule:evenodd;stroke:none;filter:url(#filter4338)"
         d="m 3547.8824,147.92299 c 0,0 -558.0293,-165.629604 -248.1896,-405.18847 309.8397,-239.55877 578.0741,-410.34817 543.2773,-210.77939 C 3808.1734,-268.47619 3687.037,73.342266 3638.5888,-9.0777041 3590.1406,-91.497674 3412.062,-217.92966 3522.3679,-285.87401 c 110.3058,-67.94445 192.1418,95.03875 156.9662,70.31625 -35.1756,-24.72251 -157.929,-83.17619 -154.7312,-47.10667 3.1979,36.06952 109.8252,204.657366 132.0721,189.562446 22.2468,-15.09493 189.0802,-417.533656 164.5983,-425.648406 -24.4819,-8.11474 -523.1967,213.25514 -550.2571,350.07181 -27.0604,136.816776 241.0028,236.119006 269.2326,234.502826 28.2299,-1.61608 7.6336,62.098744 7.6336,62.098744 z"
         id="path4584"
         inkscape:connector-curvature="0" />
      <path
         inkscape:connector-curvature="0"
         id="path4190"
         d="m 4769.8562,-37.673917 c 0,0 63.2272,-270.612203 197.2687,-207.385053 134.0416,63.22716 232.676,88.51801 187.1524,166.919673 -45.5235,78.40166997 -245.3213,199.797807 -235.205,123.925223 10.1164,-75.872583 -15.1745,-268.083116 73.3435,-192.210546 88.518,75.872583 42.9945,101.163443 42.9945,101.163443 0,0 -48.0527,-111.279783 -60.6981,-73.343493 -12.6454,37.936293 -40.4654,136.570653 -15.1745,141.628823 25.2909,5.05817 171.9778,-83.45984 154.2742,-116.33796 -17.7036,-32.878123 -169.4487,-136.570643 -184.6232,-116.337953 -15.1746,20.23269 -111.2798,161.861503 -111.2798,187.152363 0,25.29086 -48.0527,-15.17452 -48.0527,-15.17452 z"
         style="fill:#000000;fill-opacity:1;stroke:none;filter:url(#filter4330)" />
      <path
         inkscape:connector-curvature="0"
         id="path4194"
         d="m 3565.586,147.92299 c 0,0 -558.0293,-165.629604 -248.1896,-405.18847 309.8397,-239.55877 578.0741,-410.34817 543.2773,-210.77939 C 3825.877,-268.47619 3704.7406,73.342266 3656.2924,-9.0777041 3607.8442,-91.497674 3429.7656,-217.92966 3540.0715,-285.87401 c 110.3058,-67.94445 192.1418,95.03875 156.9662,70.31625 -35.1756,-24.72251 -157.929,-83.17619 -154.7312,-47.10667 3.1979,36.06952 109.8252,204.657366 132.0721,189.562446 22.2468,-15.09493 189.0802,-417.533656 164.5983,-425.648406 -24.4819,-8.11474 -523.1967,213.25514 -550.2571,350.07181 -27.0604,136.816776 241.0028,236.119006 269.2326,234.502826 28.2299,-1.61608 7.6336,62.098744 7.6336,62.098744 z"
         style="fill:#000000;fill-opacity:1;fill-rule:evenodd;stroke:none;filter:url(#filter4338)" />
      <path
         transform="matrix(0.99949716,0.03170843,-0.03170843,0.99949716,-4.9843009,-143.55021)"
         inkscape:connector-curvature="0"
         id="path4196"
         d="m 4301.9753,-50.319347 c 0,0 -108.7507,-278.199473 37.9363,-260.495873 146.687,17.70361 96.1053,118.86705 169.4488,91.0471 73.3435,-27.81994 -121.3961,-91.0471 10.1164,-151.74516 131.5124,-60.69807 280.7285,-50.58172 263.0249,75.87258 -17.7036,126.4543 -40.4654,209.914148 -91.0471,189.68146 -50.5817,-20.23269 -68.2853,-91.0471 -68.2853,-91.0471 0,0 48.0526,70.81441 70.8144,58.16898 22.7618,-12.64543 75.8726,-166.91968 7.5872,-207.38506 -68.2853,-40.46538 -187.1523,-7.58726 -171.9778,25.29086 15.1745,32.87812 17.7036,48.05263 30.349,106.22161 12.6455,58.16898 -101.1634,88.51802 -123.9252,50.58173 -22.7618,-37.9363 -65.7562,-108.75071 -65.7562,-108.75071 0,0 -106.2216,2.52909 -60.6981,96.10528 45.5236,93.576185 -7.5873,126.454303 -7.5873,126.454303 z"
         style="fill:#000000;fill-opacity:1;fill-rule:evenodd;stroke:none;filter:url(#filter4334)" />
      <path
         transform="matrix(0.4162348,-0.90925716,-0.90925716,-0.4162348,2307.2904,3900.1609)"
         inkscape:connector-curvature="0"
         id="path4198"
         d="M 3930.1997,415.03249 C 3737.9892,743.81368 4038.9504,819.68626 3737.9892,743.81368 3437.028,667.9411 3482.5515,364.45077 3634.2967,473.20147 c 151.7451,108.7507 169.4487,166.91968 169.4487,166.91968 0,0 -192.2105,-189.68146 -204.8559,-116.33796 -12.6455,73.3435 126.4543,207.38506 177.036,192.21054 50.5817,-15.17451 40.4654,-217.5014 85.9889,-260.49586 45.5236,-42.99447 68.2853,-40.46538 68.2853,-40.46538 z"
         style="fill:#000000;fill-opacity:1;fill-rule:evenodd;stroke:none;filter:url(#filter4342)" />
      <path
         transform="matrix(1.1595912,0,0,1.0641992,-770.28765,-47.913747)"
         d="m 5187.1556,234.20284 c 0,140.37595 -360.0747,254.17315 -804.2494,254.17315 -444.1746,0 -804.2493,-113.7972 -804.2493,-254.17315 0,-140.375963 360.0747,-254.173162 804.2493,-254.173162 444.1747,0 804.2494,113.797199 804.2494,254.173162 z"
         sodipodi:ry="254.17316"
         sodipodi:rx="804.24939"
         sodipodi:cy="234.20284"
         sodipodi:cx="4382.9062"
         id="path4150"
         style="fill:#4d4d4d;fill-opacity:1;stroke:#000000;stroke-width:25;stroke-linecap:round;stroke-linejoin:round;stroke-miterlimit:4;stroke-opacity:1;stroke-dasharray:none;stroke-dashoffset:0;filter:url(#filter4180)"
         sodipodi:type="arc" />
      <g
         transform="translate(131.51248,-20.232688)"
         style="filter:url(#filter4580)"
         id="g4516">
        <path
           style="fill:#000000;fill-opacity:1;fill-rule:evenodd;stroke:none;filter:url(#filter4346)"
           d="m 3859.6431,19.976107 c -26.2457,-3.914699 -52.3966,25.617715 -58.4136,65.958301 -0.3201,2.14627 -0.5699,4.277187 -0.7651,6.394052 8.2775,-1.174668 17.9395,-1.128516 28.0973,0.386581 27.9468,4.168429 49.0487,17.906239 47.1418,30.690409 -1.9068,12.78418 -26.0992,19.76608 -54.0459,15.59765 -5.6624,-0.84457 -11.0456,-2.08714 -16.012,-3.63017 6.4003,16.80698 17.8297,28.5506 32.207,30.69505 26.2457,3.9147 52.3965,-25.61772 58.4135,-65.9583 0.4038,-2.70681 0.7126,-5.394965 0.9183,-8.053271 -7.0591,0.725885 -15.0382,0.555173 -23.3832,-0.68954 -26.0366,-3.883506 -45.7099,-16.682322 -43.9334,-28.592671 1.7765,-11.910351 24.3308,-18.426385 50.3673,-14.542874 4.0465,0.603556 7.9327,1.442219 11.6149,2.43984 -6.4005,-16.812491 -17.8264,-28.550114 -32.2069,-30.695057 z"
           id="path3868"
           inkscape:connector-curvature="0"
           transform="matrix(0.86698112,0,0,0.86698112,460.75947,23.968118)" />
        <path
           style="fill:#000000;fill-opacity:1;fill-rule:evenodd;stroke:none;filter:url(#filter4346)"
           d="m 3939.8027,43.492911 c -11.4262,12.070902 -18.9844,32.925234 -18.9844,56.642139 0,37.347 18.7286,67.61918 41.8247,67.61918 23.0962,0 41.8247,-30.27218 41.8247,-67.61918 0,-22.666 -6.9069,-42.724319 -17.4917,-54.994029 3.7192,10.788041 5.9239,24.176477 5.9239,38.683955 0,35.710714 -13.3438,64.665014 -29.8059,64.665014 -16.4622,0 -29.8215,-28.9543 -29.8215,-64.665014 0,-15.262106 2.4535,-29.272046 6.5302,-40.332065 z"
           id="path3876"
           inkscape:connector-curvature="0"
           transform="matrix(0.86698112,0,0,0.86698112,460.75947,23.968118)" />
        <g
           id="g4060"
           transform="matrix(0.43136023,0,0,0.43136023,3746.6411,32.518395)"
           style="fill:#000000;filter:url(#filter4346)">
          <path
             inkscape:connector-curvature="0"
             id="path3881"
             d="m 529.91193,78.05048 c -11.67703,3.068701 -30.78336,55.34307 -43.79538,120.88718 -13.65197,68.76759 -15.42246,126.11147 -3.97117,128.06153 11.4513,1.95007 31.78732,-52.22269 45.43929,-120.99027 4.46592,-22.49571 7.66975,-43.75453 9.54777,-62.26378 -2.74993,-3.67516 -4.21671,-8.33631 -3.93885,-13.73337 0.28969,-5.62712 2.43765,-11.27791 5.87394,-16.36518 0.3979,-21.275509 -2.04424,-34.744742 -7.49379,-35.672757 -0.53678,-0.09141 -1.08752,-0.07427 -1.66181,0.07665 z"
             style="fill:#000000;fill-opacity:1;fill-rule:evenodd;stroke:none" />
          <path
             id="path3885"
             d="m 598.15625,48.5625 c -47.80724,0.07608 -85.3821,27.574244 -85.75,64.375 -0.39243,39.25414 41.71039,74.2531 94.03125,78.15625 52.32086,3.90315 95.04507,-24.77711 95.4375,-64.03125 0.39243,-39.25414 -41.71039,-74.221851 -94.03125,-78.125 -3.27005,-0.243947 -6.50035,-0.380072 -9.6875,-0.375 z m 9.875,41.6875 c 28.64242,0 51.875,13.02605 51.875,29.09375 0,16.0677 -23.23258,29.09375 -51.875,29.09375 -28.64242,0 -51.875,-13.02605 -51.875,-29.09375 0,-16.0677 23.23258,-29.09375 51.875,-29.09375 z"
             style="fill:#000000;fill-opacity:1;fill-rule:evenodd;stroke:none"
             inkscape:connector-curvature="0" />
          <path
             style="fill:#000000;fill-opacity:1;fill-rule:evenodd;stroke:none"
             d="m 519.47519,110.34948 c -7.65026,9.34042 7.57794,62.87324 35.53086,123.56903 29.32764,63.68081 61.56522,111.1381 71.97962,105.99273 10.41443,-5.14538 -4.93306,-60.93693 -34.2607,-124.61774 -9.59385,-20.83169 -19.48306,-39.92109 -28.83098,-56.00636 -4.38392,-1.36022 -8.30812,-4.27199 -11.2522,-8.80386 -3.0696,-4.72504 -4.64889,-10.56036 -4.85444,-16.69601 -12.1703,-17.45535 -22.05587,-26.92423 -27.01199,-24.4756 -0.48817,0.24119 -0.92391,0.57844 -1.30017,1.03782 z"
             id="path3898"
             inkscape:connector-curvature="0" />
        </g>
        <g
           id="g3908"
           transform="matrix(0.43136023,0,0,0.43136023,3746.6411,32.518395)"
           style="fill:#000000;filter:url(#filter4346)">
          <path
             transform="matrix(1.2704012,-0.33365777,0.33365777,1.2704012,-305.69276,265.63377)"
             d="m 821.73941,152.38313 c 0,66.42078 -6.80564,120.26546 -15.20084,120.26546 -8.39519,0 -15.20083,-53.84468 -15.20083,-120.26546 0,-66.420775 6.80564,-120.265454 15.20083,-120.265454 8.3952,0 15.20084,53.844679 15.20084,120.265454 z"
             sodipodi:ry="120.26546"
             sodipodi:rx="15.200838"
             sodipodi:cy="152.38313"
             sodipodi:cx="806.53857"
             id="path3904"
             style="fill:#000000;fill-opacity:1;fill-rule:evenodd;stroke:none"
             sodipodi:type="arc" />
          <path
             transform="matrix(1.272904,0.32397836,-0.32397836,1.272904,-132.33228,-266.33101)"
             sodipodi:type="arc"
             style="fill:#000000;fill-opacity:1;fill-rule:evenodd;stroke:none"
             id="path3906"
             sodipodi:cx="806.53857"
             sodipodi:cy="152.38313"
             sodipodi:rx="15.200838"
             sodipodi:ry="120.26546"
             d="m 821.73941,152.38313 c 0,66.42078 -6.80564,120.26546 -15.20084,120.26546 -8.39519,0 -15.20083,-53.84468 -15.20083,-120.26546 0,-66.420775 6.80564,-120.265454 15.20083,-120.265454 8.3952,0 15.20084,53.844679 15.20084,120.265454 z" />
        </g>
        <g
           id="g3912"
           transform="matrix(0.43136023,0,0,0.43136023,3898.6101,32.518395)"
           style="fill:#000000;filter:url(#filter4346)">
          <path
             sodipodi:type="arc"
             style="fill:#000000;fill-opacity:1;fill-rule:evenodd;stroke:none"
             id="path3914"
             sodipodi:cx="806.53857"
             sodipodi:cy="152.38313"
             sodipodi:rx="15.200838"
             sodipodi:ry="120.26546"
             d="m 821.73941,152.38313 c 0,66.42078 -6.80564,120.26546 -15.20084,120.26546 -8.39519,0 -15.20083,-53.84468 -15.20083,-120.26546 0,-66.420775 6.80564,-120.265454 15.20083,-120.265454 8.3952,0 15.20084,53.844679 15.20084,120.265454 z"
             transform="matrix(1.2704012,-0.33365777,0.33365777,1.2704012,-305.69276,265.63377)" />
          <path
             d="m 821.73941,152.38313 c 0,66.42078 -6.80564,120.26546 -15.20084,120.26546 -8.39519,0 -15.20083,-53.84468 -15.20083,-120.26546 0,-66.420775 6.80564,-120.265454 15.20083,-120.265454 8.3952,0 15.20084,53.844679 15.20084,120.265454 z"
             sodipodi:ry="120.26546"
             sodipodi:rx="15.200838"
             sodipodi:cy="152.38313"
             sodipodi:cx="806.53857"
             id="path3916"
             style="fill:#000000;fill-opacity:1;fill-rule:evenodd;stroke:none"
             sodipodi:type="arc"
             transform="matrix(1.272904,0.32397836,-0.32397836,1.272904,-132.33228,-266.33101)" />
        </g>
        <path
           style="fill:#000000;fill-opacity:1;fill-rule:evenodd;stroke:none;filter:url(#filter4346)"
           d="m 4272.9524,20.050968 c -3.2655,0 -6.2508,7.763936 -8.5446,20.553857 l 17.0893,0 c -2.2938,-12.790738 -5.279,-20.553857 -8.5447,-20.553857 z m -10.6987,35.955787 c -1.5056,13.800813 -2.4055,30.631353 -2.4055,48.808675 0,46.80621 5.8706,84.74652 13.1042,84.74652 7.2337,0 13.1042,-37.94031 13.1042,-84.74652 0,-18.177322 -0.8998,-35.007862 -2.4054,-48.808675 l -21.3975,0 z"
           id="path3918"
           inkscape:connector-curvature="0"
           transform="matrix(0.86698112,0,0,0.86698112,460.75947,23.968118)" />
        <path
           inkscape:connector-curvature="0"
           id="path3923"
           d="m 4461.5843,20.050968 c -3.2656,0 -6.2509,7.763936 -8.5448,20.553857 l 17.0894,0 c -2.2939,-12.790738 -5.279,-20.553857 -8.5446,-20.553857 z m -10.6989,35.955787 c -1.5055,13.800813 -2.4054,30.631353 -2.4054,48.808675 0,46.80621 5.8705,84.74652 13.1043,84.74652 7.2336,0 13.1041,-37.94031 13.1041,-84.74652 0,-18.177322 -0.8998,-35.007862 -2.4054,-48.808675 l -21.3976,0 z"
           style="fill:#000000;fill-opacity:1;fill-rule:evenodd;stroke:none;filter:url(#filter4346)"
           transform="matrix(0.86698112,0,0,0.86698112,460.75947,23.968118)" />
        <g
           id="g3951"
           transform="matrix(0.43136023,0,0,0.43136023,3746.6411,32.518395)"
           style="fill:#000000;filter:url(#filter4346)">
          <path
             d="m 1522.7663,200.22107 c 0,92.84094 -9.2077,168.10339 -20.5659,168.10339 -11.3582,0 -20.5658,-75.26245 -20.5658,-168.10339 0,-92.84094 9.2076,-168.103394 20.5658,-168.103394 11.3582,0 20.5659,75.262454 20.5659,168.103394 z"
             sodipodi:ry="168.10339"
             sodipodi:rx="20.56584"
             sodipodi:cy="200.22107"
             sodipodi:cx="1502.2004"
             id="path3925"
             style="fill:#000000;fill-opacity:1;fill-rule:evenodd;stroke:none"
             sodipodi:type="arc" />
          <path
             transform="matrix(0.96202427,-0.27296392,0.27296392,0.96202427,51.711202,410.0628)"
             sodipodi:type="arc"
             style="fill:#000000;fill-opacity:1;fill-rule:evenodd;stroke:none"
             id="path3929"
             sodipodi:cx="1502.2004"
             sodipodi:cy="200.22107"
             sodipodi:rx="20.56584"
             sodipodi:ry="168.10339"
             d="m 1522.7663,200.22107 c 0,92.84094 -9.2077,168.10339 -20.5659,168.10339 -11.3582,0 -20.5658,-75.26245 -20.5658,-168.10339 0,-92.84094 9.2076,-168.103394 20.5658,-168.103394 11.3582,0 20.5659,75.262454 20.5659,168.103394 z" />
          <path
             d="m 1522.7663,200.22107 c 0,92.84094 -9.2077,168.10339 -20.5659,168.10339 -11.3582,0 -20.5658,-75.26245 -20.5658,-168.10339 0,-92.84094 9.2076,-168.103394 20.5658,-168.103394 11.3582,0 20.5659,75.262454 20.5659,168.103394 z"
             sodipodi:ry="168.10339"
             sodipodi:rx="20.56584"
             sodipodi:cy="200.22107"
             sodipodi:cx="1502.2004"
             id="path3931"
             style="fill:#000000;fill-opacity:1;fill-rule:evenodd;stroke:none"
             sodipodi:type="arc"
             transform="matrix(0.99699664,0.07744487,-0.07744487,0.99699664,130.03299,-128.38182)" />
        </g>
        <g
           id="g3960"
           transform="matrix(0.43136023,0,0,0.43136023,2993.1899,196.16047)"
           style="fill:#000000;filter:url(#filter4346)">
          <path
             sodipodi:type="arc"
             style="fill:#000000;fill-opacity:1;fill-rule:evenodd;stroke:none"
             id="path3962"
             sodipodi:cx="1502.2004"
             sodipodi:cy="200.22107"
             sodipodi:rx="20.56584"
             sodipodi:ry="168.10339"
             d="m 1522.7663,200.22107 c 0,92.84094 -9.2077,168.10339 -20.5659,168.10339 -11.3582,0 -20.5658,-75.26245 -20.5658,-168.10339 0,-92.84094 9.2076,-168.103394 20.5658,-168.103394 11.3582,0 20.5659,75.262454 20.5659,168.103394 z" />
          <path
             d="m 1522.7663,200.22107 c 0,92.84094 -9.2077,168.10339 -20.5659,168.10339 -11.3582,0 -20.5658,-75.26245 -20.5658,-168.10339 0,-92.84094 9.2076,-168.103394 20.5658,-168.103394 11.3582,0 20.5659,75.262454 20.5659,168.103394 z"
             sodipodi:ry="168.10339"
             sodipodi:rx="20.56584"
             sodipodi:cy="200.22107"
             sodipodi:cx="1502.2004"
             id="path3964"
             style="fill:#000000;fill-opacity:1;fill-rule:evenodd;stroke:none"
             sodipodi:type="arc"
             transform="matrix(0.96202427,-0.27296392,0.27296392,0.96202427,51.711202,410.0628)" />
          <path
             transform="matrix(0.99699664,0.07744487,-0.07744487,0.99699664,130.03299,-128.38182)"
             sodipodi:type="arc"
             style="fill:#000000;fill-opacity:1;fill-rule:evenodd;stroke:none"
             id="path3966"
             sodipodi:cx="1502.2004"
             sodipodi:cy="200.22107"
             sodipodi:rx="20.56584"
             sodipodi:ry="168.10339"
             d="m 1522.7663,200.22107 c 0,92.84094 -9.2077,168.10339 -20.5659,168.10339 -11.3582,0 -20.5658,-75.26245 -20.5658,-168.10339 0,-92.84094 9.2076,-168.103394 20.5658,-168.103394 11.3582,0 20.5659,75.262454 20.5659,168.103394 z" />
        </g>
        <path
           inkscape:connector-curvature="0"
           id="path3968"
           d="m 3923.1371,208.80026 c -3.2656,0 -6.2509,7.76394 -8.5447,20.55386 l 17.0893,0 c -2.2938,-12.79074 -5.279,-20.55386 -8.5446,-20.55386 z m -10.6988,35.95579 c -1.5056,13.80081 -2.4054,30.63135 -2.4054,48.80867 0,46.80621 5.8705,84.74652 13.1042,84.74652 7.2337,0 13.1042,-37.94031 13.1042,-84.74652 0,-18.17732 -0.8999,-35.00786 -2.4054,-48.80867 l -21.3976,0 z"
           style="fill:#000000;fill-opacity:1;fill-rule:evenodd;stroke:none;filter:url(#filter4346)"
           transform="matrix(0.86698112,0,0,0.86698112,344.42151,23.968118)" />
        <path
           style="fill:none;stroke:#000000;stroke-width:25;stroke-miterlimit:4;stroke-opacity:1;stroke-dasharray:none;filter:url(#filter4346)"
           d="m 4043.5772,242.19182 c 0,0 -65.7281,-3.37067 -61.7956,66.28985 3.9324,69.66051 84.2667,46.06582 84.2667,46.06582 0,0 39.3245,-16.85335 28.0889,-37.07737 -11.2355,-20.22402 -57.8631,-1.12356 -57.8631,-1.12356"
           id="path3999"
           inkscape:connector-curvature="0"
           transform="matrix(0.86698112,0,0,0.86698112,344.42151,23.968118)" />
        <path
           inkscape:connector-curvature="0"
           id="path4001"
           d="m 4701.683,55.95918 c 0,0 -65.728,-3.370669 -61.7956,66.28985 3.9325,69.66052 84.2668,46.06582 84.2668,46.06582 0,0 39.3245,-16.85335 28.0889,-37.07737 -11.2356,-20.22402 -57.8631,-1.12355 -57.8631,-1.12355"
           style="fill:none;stroke:#000000;stroke-width:25;stroke-miterlimit:4;stroke-opacity:1;stroke-dasharray:none;filter:url(#filter4346)"
           transform="matrix(0.86698112,0,0,0.86698112,460.75947,23.968118)" />
        <g
           id="g4022"
           transform="matrix(0.21170078,0,0,0.21170078,3866.0041,404.67356)"
           style="fill:#000000;filter:url(#filter4346)">
          <path
             d="m 407.18287,-595.3374 c 0,189.2631 -22.08005,342.69116 -49.31718,342.69116 -27.23712,0 -49.31717,-153.42806 -49.31717,-342.69116 0,-189.26311 22.08005,-342.69116 49.31717,-342.69116 27.23713,0 49.31718,153.42805 49.31718,342.69116 z"
             sodipodi:ry="342.69116"
             sodipodi:rx="49.317177"
             sodipodi:cy="-595.3374"
             sodipodi:cx="357.86569"
             id="path4016"
             style="fill:#000000;fill-opacity:1;fill-rule:evenodd;stroke:none"
             sodipodi:type="arc" />
          <path
             transform="matrix(0,1,-0.63468635,0,127.96471,-953.20309)"
             sodipodi:type="arc"
             style="fill:#000000;fill-opacity:1;fill-rule:evenodd;stroke:none"
             id="path4018"
             sodipodi:cx="357.86569"
             sodipodi:cy="-595.3374"
             sodipodi:rx="49.317177"
             sodipodi:ry="342.69116"
             d="m 407.18287,-595.3374 c 0,189.2631 -22.08005,342.69116 -49.31718,342.69116 -27.23712,0 -49.31717,-153.42806 -49.31717,-342.69116 0,-189.26311 22.08005,-342.69116 49.31717,-342.69116 27.23713,0 49.31718,153.42805 49.31718,342.69116 z" />
          <path
             transform="translate(298.43216,0)"
             sodipodi:type="arc"
             style="fill:#000000;fill-opacity:1;fill-rule:evenodd;stroke:none"
             id="path4020"
             sodipodi:cx="357.86569"
             sodipodi:cy="-595.3374"
             sodipodi:rx="49.317177"
             sodipodi:ry="342.69116"
             d="m 407.18287,-595.3374 c 0,189.2631 -22.08005,342.69116 -49.31718,342.69116 -27.23712,0 -49.31717,-153.42806 -49.31717,-342.69116 0,-189.26311 22.08005,-342.69116 49.31717,-342.69116 27.23713,0 49.31718,153.42805 49.31718,342.69116 z" />
        </g>
        <g
           id="g4031"
           transform="matrix(0.29688761,0,0,0.29688761,3793.4682,440.50608)"
           style="fill:#000000;filter:url(#filter4346)">
          <path
             d="m 1074.8616,-539.69751 c 0,172.5018 -16.4185,312.34213 -36.6718,312.34213 -20.2532,0 -36.6717,-139.84033 -36.6717,-312.34213 0,-172.5018 16.4185,-312.34213 36.6717,-312.34213 20.2533,0 36.6718,139.84033 36.6718,312.34213 z"
             sodipodi:ry="312.34213"
             sodipodi:rx="36.671749"
             sodipodi:cy="-539.69751"
             sodipodi:cx="1038.1898"
             id="path4027"
             style="fill:#000000;fill-opacity:1;fill-rule:evenodd;stroke:none"
             sodipodi:type="arc" />
          <path
             transform="matrix(0,1,-0.68016195,0,677.43083,-1780.2142)"
             sodipodi:type="arc"
             style="fill:#000000;fill-opacity:1;fill-rule:evenodd;stroke:none"
             id="path4029"
             sodipodi:cx="1038.1898"
             sodipodi:cy="-539.69751"
             sodipodi:rx="36.671749"
             sodipodi:ry="312.34213"
             d="m 1074.8616,-539.69751 c 0,172.5018 -16.4185,312.34213 -36.6718,312.34213 -20.2532,0 -36.6717,-139.84033 -36.6717,-312.34213 0,-172.5018 16.4185,-312.34213 36.6717,-312.34213 20.2533,0 36.6718,139.84033 36.6718,312.34213 z" />
        </g>
        <g
           id="g4048"
           transform="matrix(0.43136023,0,0,0.43136023,3554.7044,490.73956)"
           style="fill:#000000;filter:url(#filter4346)">
          <path
             transform="translate(-91.047099,-627.21335)"
             sodipodi:type="arc"
             style="fill:#000000;fill-opacity:1;fill-rule:evenodd;stroke:none"
             id="path4037"
             sodipodi:cx="1502.2004"
             sodipodi:cy="200.22107"
             sodipodi:rx="20.56584"
             sodipodi:ry="168.10339"
             d="m 1522.7663,200.22107 c 0,92.84094 -9.2077,168.10339 -20.5659,168.10339 -11.3582,0 -20.5658,-75.26245 -20.5658,-168.10339 0,-92.84094 9.2076,-168.103394 20.5658,-168.103394 11.3582,0 20.5659,75.262454 20.5659,168.103394 z" />
          <path
             d="m 1522.7663,200.22107 c 0,92.84094 -9.2077,168.10339 -20.5659,168.10339 -11.3582,0 -20.5658,-75.26245 -20.5658,-168.10339 0,-92.84094 9.2076,-168.103394 20.5658,-168.103394 11.3582,0 20.5659,75.262454 20.5659,168.103394 z"
             sodipodi:ry="168.10339"
             sodipodi:rx="20.56584"
             sodipodi:cy="200.22107"
             sodipodi:cx="1502.2004"
             id="path4039"
             style="fill:#000000;fill-opacity:1;fill-rule:evenodd;stroke:none"
             sodipodi:type="arc"
             transform="matrix(0.90959048,-0.41550591,0.41550591,0.90959048,33.244433,-1.4672327)" />
          <path
             transform="matrix(0.94818077,0.31773138,-0.31773138,0.94818077,242.91877,-1115.4408)"
             sodipodi:type="arc"
             style="fill:#000000;fill-opacity:1;fill-rule:evenodd;stroke:none"
             id="path4041"
             sodipodi:cx="1502.2004"
             sodipodi:cy="200.22107"
             sodipodi:rx="20.56584"
             sodipodi:ry="168.10339"
             d="m 1522.7663,200.22107 c 0,92.84094 -9.2077,168.10339 -20.5659,168.10339 -11.3582,0 -20.5658,-75.26245 -20.5658,-168.10339 0,-92.84094 9.2076,-168.103394 20.5658,-168.103394 11.3582,0 20.5659,75.262454 20.5659,168.103394 z" />
          <path
             d="m 1522.7663,200.22107 c 0,92.84094 -9.2077,168.10339 -20.5659,168.10339 -11.3582,0 -20.5658,-75.26245 -20.5658,-168.10339 0,-92.84094 9.2076,-168.103394 20.5658,-168.103394 11.3582,0 20.5659,75.262454 20.5659,168.103394 z"
             sodipodi:ry="168.10339"
             sodipodi:rx="20.56584"
             sodipodi:cy="200.22107"
             sodipodi:cx="1502.2004"
             id="path4046"
             style="fill:#000000;fill-opacity:1;fill-rule:evenodd;stroke:none"
             sodipodi:type="arc"
             transform="matrix(0.99259616,-0.12146138,0.12146138,0.99259616,158.33594,-456.83752)" />
        </g>
        <path
           sodipodi:type="arc"
           style="fill:#000000;fill-opacity:1;fill-rule:evenodd;stroke:none;filter:url(#filter4346)"
           id="path4054"
           sodipodi:cx="1999.3573"
           sodipodi:cy="846.7038"
           sodipodi:rx="39.343346"
           sodipodi:ry="266.46176"
           d="m 2038.7006,846.7038 c 0,147.16276 -17.6146,266.4618 -39.3433,266.4618 -21.7287,0 -39.3433,-119.29904 -39.3433,-266.4618 0,-147.16277 17.6146,-266.46177 39.3433,-266.46177 21.7287,0 39.3433,119.299 39.3433,266.46177 z"
           transform="matrix(0.27384276,0.07590213,-0.07590213,0.27384276,3869.8332,-76.151287)" />
        <path
           transform="matrix(-0.27384276,0.07590213,0.07590213,0.27384276,4877.9902,-76.151287)"
           d="m 2038.7006,846.7038 c 0,147.16276 -17.6146,266.4618 -39.3433,266.4618 -21.7287,0 -39.3433,-119.29904 -39.3433,-266.4618 0,-147.16277 17.6146,-266.46177 39.3433,-266.46177 21.7287,0 39.3433,119.299 39.3433,266.46177 z"
           sodipodi:ry="266.46176"
           sodipodi:rx="39.343346"
           sodipodi:cy="846.7038"
           sodipodi:cx="1999.3573"
           id="path4056"
           style="fill:#000000;fill-opacity:1;fill-rule:evenodd;stroke:none;filter:url(#filter4346)"
           sodipodi:type="arc" />
        <path
           sodipodi:type="arc"
           style="fill:#000000;fill-opacity:1;fill-rule:evenodd;stroke:none;filter:url(#filter4346)"
           id="path4058"
           sodipodi:cx="1999.3573"
           sodipodi:cy="846.7038"
           sodipodi:rx="39.343346"
           sodipodi:ry="266.46176"
           d="m 2038.7006,846.7038 c 0,147.16276 -17.6146,266.4618 -39.3433,266.4618 -21.7287,0 -39.3433,-119.29904 -39.3433,-266.4618 0,-147.16277 17.6146,-266.46177 39.3433,-266.46177 21.7287,0 39.3433,119.299 39.3433,266.46177 z"
           transform="matrix(-0.05107835,-0.20705482,-0.18428252,0.05739024,4629.0192,678.44195)" />
        <g
           id="g4065"
           transform="matrix(0.43136023,0,0,0.43136023,4236.6362,233.08659)"
           style="fill:#000000;filter:url(#filter4346)">
          <path
             style="fill:#000000;fill-opacity:1;fill-rule:evenodd;stroke:none"
             d="m 529.91193,78.05048 c -11.67703,3.068701 -30.78336,55.34307 -43.79538,120.88718 -13.65197,68.76759 -15.42246,126.11147 -3.97117,128.06153 11.4513,1.95007 31.78732,-52.22269 45.43929,-120.99027 4.46592,-22.49571 7.66975,-43.75453 9.54777,-62.26378 -2.74993,-3.67516 -4.21671,-8.33631 -3.93885,-13.73337 0.28969,-5.62712 2.43765,-11.27791 5.87394,-16.36518 0.3979,-21.275509 -2.04424,-34.744742 -7.49379,-35.672757 -0.53678,-0.09141 -1.08752,-0.07427 -1.66181,0.07665 z"
             id="path4067"
             inkscape:connector-curvature="0" />
          <path
             style="fill:#000000;fill-opacity:1;fill-rule:evenodd;stroke:none"
             d="m 598.15625,48.5625 c -47.80724,0.07608 -85.3821,27.574244 -85.75,64.375 -0.39243,39.25414 41.71039,74.2531 94.03125,78.15625 52.32086,3.90315 95.04507,-24.77711 95.4375,-64.03125 0.39243,-39.25414 -41.71039,-74.221851 -94.03125,-78.125 -3.27005,-0.243947 -6.50035,-0.380072 -9.6875,-0.375 z m 9.875,41.6875 c 28.64242,0 51.875,13.02605 51.875,29.09375 0,16.0677 -23.23258,29.09375 -51.875,29.09375 -28.64242,0 -51.875,-13.02605 -51.875,-29.09375 0,-16.0677 23.23258,-29.09375 51.875,-29.09375 z"
             id="path4069"
             inkscape:connector-curvature="0" />
          <path
             inkscape:connector-curvature="0"
             id="path4071"
             d="m 519.47519,110.34948 c -7.65026,9.34042 7.57794,62.87324 35.53086,123.56903 29.32764,63.68081 61.56522,111.1381 71.97962,105.99273 10.41443,-5.14538 -4.93306,-60.93693 -34.2607,-124.61774 -9.59385,-20.83169 -19.48306,-39.92109 -28.83098,-56.00636 -4.38392,-1.36022 -8.30812,-4.27199 -11.2522,-8.80386 -3.0696,-4.72504 -4.64889,-10.56036 -4.85444,-16.69601 -12.1703,-17.45535 -22.05587,-26.92423 -27.01199,-24.4756 -0.48817,0.24119 -0.92391,0.57844 -1.30017,1.03782 z"
             style="fill:#000000;fill-opacity:1;fill-rule:evenodd;stroke:none" />
        </g>
        <g
           id="g4093"
           transform="matrix(0.31559313,0,0,0.31559313,3842.1244,96.067808)"
           style="fill:#000000;filter:url(#filter4346)">
          <path
             d="m 2650.3109,537.32202 c 0,21.72873 -82.4684,39.34335 -184.1984,39.34335 -101.7299,0 -184.1983,-17.61462 -184.1983,-39.34335 0,-21.72873 82.4684,-39.34334 184.1983,-39.34334 101.73,0 184.1984,17.61461 184.1984,39.34334 z"
             sodipodi:ry="39.343346"
             sodipodi:rx="184.19839"
             sodipodi:cy="537.32202"
             sodipodi:cx="2466.1125"
             id="path4077"
             style="fill:#000000;fill-opacity:1;fill-rule:evenodd;stroke:none"
             sodipodi:type="arc"
             transform="matrix(0.68932039,0,0,1,708.9442,178.83339)" />
          <path
             transform="matrix(0,0.98556247,-1,0,2821.0245,-1724.2333)"
             sodipodi:type="arc"
             style="fill:#000000;fill-opacity:1;fill-rule:evenodd;stroke:none"
             id="path4079"
             sodipodi:cx="2466.1125"
             sodipodi:cy="537.32202"
             sodipodi:rx="184.19839"
             sodipodi:ry="39.343346"
             d="m 2650.3109,537.32202 c 0,21.72873 -82.4684,39.34335 -184.1984,39.34335 -101.7299,0 -184.1983,-17.61462 -184.1983,-39.34335 0,-21.72873 82.4684,-39.34334 184.1983,-39.34334 101.73,0 184.1984,17.61461 184.1984,39.34334 z" />
          <path
             inkscape:connector-curvature="0"
             id="path4073"
             d="m 2374.3529,814.85186 c -33.2989,0 -64.3445,2.17205 -90.6562,5.9375 l 0,66.8125 c 26.3117,3.76545 57.3573,5.9375 90.6562,5.9375 94.7461,0 171.5626,-17.61502 171.5626,-39.34375 0,-21.72873 -76.8165,-39.34375 -171.5626,-39.34375 z"
             style="fill:#000000;fill-opacity:1;fill-rule:evenodd;stroke:none" />
          <path
             inkscape:connector-curvature="0"
             style="fill:#000000;fill-opacity:1;fill-rule:evenodd;stroke:none"
             d="m 2368.0937,520.67094 c -33.2989,0 -64.3445,2.17205 -90.6562,5.9375 l 0,66.8125 c 26.3117,3.76545 57.3573,5.9375 90.6562,5.9375 94.7461,0 171.5626,-17.61502 171.5626,-39.34375 0,-21.72873 -76.8165,-39.34375 -171.5626,-39.34375 z"
             id="path4091" />
        </g>
        <path
           inkscape:connector-curvature="0"
           id="path4399"
           d="m 5063.4881,270.35563 c -26.2457,-3.9147 -52.3966,25.61771 -58.4136,65.9583 -0.3201,2.14627 -0.5699,4.27719 -0.7651,6.39405 8.2775,-1.17467 17.9395,-1.12851 28.0973,0.38658 27.9468,4.16843 49.0487,17.90624 47.1418,30.69041 -1.9068,12.78418 -26.0992,19.76608 -54.0459,15.59765 -5.6624,-0.84457 -11.0456,-2.08714 -16.012,-3.63017 6.4003,16.80698 17.8297,28.5506 32.207,30.69505 26.2457,3.9147 52.3965,-25.61772 58.4135,-65.9583 0.4038,-2.70681 0.7126,-5.39496 0.9183,-8.05327 -7.0591,0.72589 -15.0382,0.55517 -23.3832,-0.68954 -26.0366,-3.88351 -45.7099,-16.68232 -43.9334,-28.59267 1.7765,-11.91035 24.3308,-18.42639 50.3673,-14.54287 4.0465,0.60355 7.9327,1.44221 11.6149,2.43984 -6.4005,-16.8125 -17.8264,-28.55012 -32.2069,-30.69506 z"
           style="fill:#000000;fill-opacity:1;fill-rule:evenodd;stroke:none;filter:url(#filter4346)"
           transform="matrix(0.86698112,0,0,0.86698112,344.42151,23.968118)" />
      </g>
      <path
         transform="matrix(0,1,1,0,4270.6224,-5097.6336)"
         style="fill:#000000;fill-opacity:1;fill-rule:evenodd;stroke:none;filter:url(#filter4342)"
         d="m 5088.5211,-409.44957 c -192.2105,328.781189 108.7507,404.6537694 -192.2105,328.781189 -300.9612,-75.872579 -255.4377,-379.362909 -103.6925,-270.612209 151.7451,108.7507 169.4487,166.91968 169.4487,166.91968 0,0 -192.2105,-189.68146 -204.8559,-116.33796 -12.6455,73.3435 126.4543,207.385059 177.036,192.21054 50.5817,-15.17451 40.4654,-217.5014 85.9889,-260.49586 45.5236,-42.99447 68.2853,-40.46538 68.2853,-40.46538 z"
         id="path4586"
         inkscape:connector-curvature="0" />
    </g>
  </g>
</svg>
