<?xml version="1.0" encoding="UTF-8" standalone="no"?>
<!-- Created with Inkscape (http://www.inkscape.org/) -->

<svg
   xmlns:dc="http://purl.org/dc/elements/1.1/"
   xmlns:cc="http://creativecommons.org/ns#"
   xmlns:rdf="http://www.w3.org/1999/02/22-rdf-syntax-ns#"
   xmlns:svg="http://www.w3.org/2000/svg"
   xmlns="http://www.w3.org/2000/svg"
   xmlns:sodipodi="http://sodipodi.sourceforge.net/DTD/sodipodi-0.dtd"
   xmlns:inkscape="http://www.inkscape.org/namespaces/inkscape"
   width="210mm"
   height="297mm"
   id="svg13902"
   version="1.1"
   inkscape:version="0.48.4 r9939"
   sodipodi:docname="slime.svg">
  <defs
     id="defs13904" />
  <sodipodi:namedview
     id="base"
     pagecolor="#ffffff"
     bordercolor="#666666"
     borderopacity="1.0"
     inkscape:pageopacity="0.0"
     inkscape:pageshadow="2"
     inkscape:zoom="5.0537031"
     inkscape:cx="385.96243"
     inkscape:cy="635.68654"
     inkscape:document-units="px"
     inkscape:current-layer="layer1"
     showgrid="false"
     showguides="true"
     inkscape:guide-bbox="true"
     inkscape:window-width="1213"
     inkscape:window-height="1000"
     inkscape:window-x="67"
     inkscape:window-y="24"
     inkscape:window-maximized="1" />
  <metadata
     id="metadata13907">
    <rdf:RDF>
      <cc:Work
         rdf:about="">
        <dc:format>image/svg+xml</dc:format>
        <dc:type
           rdf:resource="http://purl.org/dc/dcmitype/StillImage" />
        <dc:title />
      </cc:Work>
    </rdf:RDF>
  </metadata>
  <g
     inkscape:label="Capa 1"
     inkscape:groupmode="layer"
     id="layer1">
    <path
       style="fill:#112b00;fill-opacity:1;fill-rule:evenodd;stroke:#112b00;stroke-width:2.5;stroke-linecap:round;stroke-linejoin:round;stroke-miterlimit:4;stroke-opacity:1;stroke-dasharray:none;stroke-dashoffset:0"
       d="m 304.43355,438.50327 c -0.64268,-1.36275 -1.18564,-2.52194 -1.20658,-2.57596 -0.0209,-0.054 0.29485,0.0116 0.70177,0.14585 0.91663,0.30239 1.55253,0.31723 1.65941,0.0387 0.14322,-0.37322 0.0822,-0.66938 -0.17499,-0.84992 -0.22997,-0.16139 -0.27872,-0.52378 -0.51908,-3.85872 -0.14589,-2.02433 -0.23085,-3.73628 -0.1888,-3.80433 0.0421,-0.0681 0.35616,0.13788 0.69799,0.45763 1.10649,1.03499 3.00503,1.81926 5.32717,2.20062 1.0321,0.1695 1.14256,0.21919 1.70535,0.76718 0.33098,0.32227 0.93737,0.7447 1.34754,0.93874 1.53297,0.72521 4.41078,1.23818 6.94634,1.23818 1.11481,0 1.16936,-0.0137 1.38803,-0.34738 0.35003,-0.53422 0.27699,-1.69633 -0.1642,-2.61222 -0.72029,-1.49529 -3.1958,-3.612 -6.22449,-5.32229 -0.85584,-0.48329 -1.33825,-0.86184 -1.80293,-1.41475 -1.38763,-1.65115 -1.15419,-0.6637 -2.69268,-11.3901 -0.7588,-5.29031 -1.37226,-9.62789 -1.36325,-9.63907 0.009,-0.0112 3.31521,-0.28342 7.34713,-0.60498 l 7.33075,-0.58465 0.37181,0.31285 c 0.20449,0.17208 0.41717,0.31286 0.47262,0.31286 0.10128,0 0.51603,2.82189 1.1068,7.53031 0.60556,4.82634 0.71573,7.07505 0.44514,9.08568 -0.2156,1.60201 0.11107,2.44552 0.80356,2.07492 0.13764,-0.0737 0.25491,-0.1757 0.26059,-0.22675 0.006,-0.051 0.0203,-0.44902 0.0325,-0.88441 0.0294,-1.05158 0.21609,-1.274 0.98134,-1.16911 0.83092,0.11389 1.05319,0.3646 1.05319,1.18795 0,0.50036 0.0543,0.70089 0.20537,0.75888 0.39312,0.15085 0.57899,0.0763 0.82725,-0.33197 0.14597,-0.24002 0.56342,-0.57732 1.0043,-0.81145 0.85422,-0.45365 0.97146,-0.72685 0.62513,-1.45669 -0.19364,-0.40807 -0.19529,-0.48255 -0.0167,-0.75508 0.33085,-0.50494 2.12571,-0.95898 2.35085,-0.59469 0.0428,0.0693 -0.0466,0.41515 -0.1986,0.76861 -0.30283,0.70394 -0.298,1.02106 0.0186,1.22041 0.26709,0.16817 0.73236,0.0479 1.29368,-0.33446 0.42153,-0.28713 0.44448,-0.34091 0.40719,-0.95439 -0.0566,-0.93081 0.22871,-1.25 1.15438,-1.29158 0.38496,-0.0173 0.89045,0.0481 1.12331,0.14545 0.35886,0.14994 0.4234,0.2434 0.4234,0.61313 0,0.26824 -0.17499,0.72681 -0.45442,1.19085 -0.24993,0.41505 -0.45441,0.83041 -0.45441,0.92303 0,0.68599 0.72549,0.81177 1.16028,0.20117 0.49908,-0.70089 0.91448,-1.75441 0.91578,-2.32251 0.002,-1.06779 -0.51611,-1.59509 -1.86529,-1.89683 l -0.63313,-0.14159 -0.36479,-0.95008 c -0.20064,-0.52255 -0.5513,-1.5742 -0.77925,-2.337 -0.69162,-2.31437 -2.70938,-10.46927 -2.61327,-10.56169 0.0495,-0.0476 3.00408,-0.31756 6.56581,-0.60001 6.16244,-0.48868 6.48686,-0.50256 6.70263,-0.28679 0.1247,0.12471 0.30208,0.25185 0.39416,0.28255 0.11273,0.0376 0.25985,0.79569 0.45037,2.32076 0.2348,1.8796 0.25971,2.42641 0.14643,3.21391 -0.14155,0.98392 -0.0587,1.3488 0.32333,1.42425 0.6019,0.11888 0.89156,-0.94549 1.17492,-4.31737 0.0839,-0.99788 0.18022,-1.72819 0.21413,-1.62291 0.0339,0.10528 1.63771,4.71934 3.56399,10.25347 3.23735,9.30081 3.50075,10.12317 3.48167,10.86995 -0.0199,0.7766 -0.007,0.8113 0.33016,0.89594 0.55939,0.1404 0.74947,-0.23781 1.02898,-2.04742 0.46649,-3.02004 0.26121,-7.48141 -0.45871,-9.96954 -0.0709,-0.2452 -0.10566,-0.46915 -0.0771,-0.49767 0.0285,-0.0285 0.63288,0.34737 1.34301,0.83532 l 1.29115,0.88717 0.0801,1.23341 c 0.044,0.67838 0.11883,2.78167 0.16621,4.67398 l 0.0861,3.44057 -0.63198,2.68733 c -0.57235,2.43378 -0.65983,2.69433 -0.92719,2.76143 -0.22348,0.0561 -0.29521,0.16702 -0.29521,0.45655 0,0.73446 0.91334,0.82861 1.69094,0.1743 l 0.38639,-0.32512 0,0.71687 c 0,0.57159 -0.046,0.72995 -0.22721,0.78142 -0.12496,0.0355 -12.05466,2.52966 -26.51044,5.54257 -20.86309,4.34833 -26.33135,5.44795 -26.5166,5.33226 -0.48689,-0.30407 -0.83452,-0.16917 -1.46459,0.56833 -0.33553,0.39275 -0.67857,0.71178 -0.76231,0.70897 -0.0837,-0.003 -0.67807,-1.12009 -1.32074,-2.48284 z m 41.2682,-7.47311 c 0.3673,-0.19504 1.14109,-0.82337 1.71954,-1.39629 0.83307,-0.82512 1.10974,-1.19791 1.33079,-1.7931 0.15348,-0.41327 0.27874,-0.90988 0.27834,-1.10358 -0.002,-1.02633 -0.63375,-2.00289 -1.75379,-2.71147 -0.50525,-0.31965 -0.57489,-0.42424 -0.65103,-0.97786 -0.17526,-1.27431 -1.02818,-1.98608 -2.24403,-1.87267 -1.46651,0.1368 -2.26319,0.98143 -2.25934,2.39532 10e-4,0.40545 0.005,1.77891 0.009,3.05213 0.007,2.47077 0.16421,3.40395 0.69945,4.15563 0.57763,0.81121 1.64216,0.9046 2.87136,0.25189 l 10e-6,0 z"
       id="path14952"
       inkscape:connector-curvature="0" />
    <path
       style="fill:#225500;fill-opacity:1;fill-rule:evenodd;stroke:#225500;stroke-width:0.43471238;stroke-linecap:round;stroke-linejoin:round;stroke-miterlimit:4;stroke-opacity:1;stroke-dasharray:none;stroke-dashoffset:0"
       d="m 343.86831,430.19696 c -0.4985,-0.56855 -0.67303,-1.5918 -0.57543,-3.37386 0.0941,-1.71889 0.0931,-1.83249 -0.0218,-2.53576 -0.19287,-1.17966 0.15332,-1.8359 1.03855,-1.96865 0.79758,-0.11961 1.15521,0.24901 1.19163,1.22821 0.0125,0.33761 0.0267,0.66478 0.0315,0.72705 0.005,0.0623 0.22557,0.22274 0.49066,0.35662 1.66421,0.84046 2.16525,1.77125 1.58272,2.94023 -0.30258,0.6072 -1.08347,1.46107 -1.86822,2.04283 -0.98223,0.72816 -1.57927,0.91444 -1.86959,0.58333 z"
       id="path14960"
       inkscape:connector-curvature="0" />
    <rect
       style="fill:#112b00;fill-opacity:1;fill-rule:evenodd;stroke:#112b00;stroke-width:0.51315361;stroke-linecap:round;stroke-linejoin:round;stroke-miterlimit:4;stroke-opacity:1;stroke-dasharray:none;stroke-dashoffset:0"
       id="rect14958"
       width="0.27792355"
       height="1.0427204"
       x="350.19424"
       y="400.37201"
       ry="0.13896178" />
    <path
       style="fill:#112b00;fill-opacity:1;fill-rule:evenodd;stroke:#112b00;stroke-width:0.51315361;stroke-linecap:round;stroke-linejoin:round;stroke-miterlimit:4;stroke-opacity:1;stroke-dasharray:none;stroke-dashoffset:0"
       d="m 311.71982,427.79841 c -0.0487,-0.26573 -0.0946,-0.50548 -0.10201,-0.53277 -0.0169,-0.0623 0.21441,-0.47079 0.45843,-0.80971 0.21043,-0.29225 0.92291,-1.11595 0.94563,-1.09323 0.0168,0.0168 0.14595,0.87286 0.13265,0.87925 -0.005,0.002 -0.0614,0.0281 -0.12601,0.0574 -0.26871,0.12189 -0.88769,1.07441 -1.13234,1.7425 l -0.0878,0.23971 -0.0886,-0.48315 z"
       id="path14954"
       inkscape:connector-curvature="0" />
    <path
       style="fill:#112b00;fill-opacity:1;fill-rule:evenodd;stroke:#112b00;stroke-width:0.51315361;stroke-linecap:round;stroke-linejoin:round;stroke-miterlimit:4;stroke-opacity:1;stroke-dasharray:none;stroke-dashoffset:0"
       d="m 311.31206,425.64772 c 0,-0.0228 -0.22674,-1.26356 -0.50386,-2.75733 -0.27713,-1.49376 -0.51174,-2.76705 -0.52137,-2.82954 -0.0118,-0.0769 0.0702,0.0541 0.254,0.40573 0.41,0.78424 0.77438,1.40153 1.23581,2.09356 0.24552,0.36822 0.85621,1.19348 0.99133,1.33965 l 0.0832,0.09 -0.3256,0.33195 c -0.36045,0.36749 -0.7991,0.85316 -1.01805,1.12718 -0.19925,0.24935 -0.19547,0.24551 -0.19547,0.1988 z"
       id="path14956"
       inkscape:connector-curvature="0" />
    <path
       style="fill:#112b00;stroke:#000000;stroke-width:1.0267179;stroke-linecap:round;stroke-linejoin:round;stroke-miterlimit:4;stroke-opacity:1;stroke-dasharray:none;stroke-dashoffset:0"
       d="m 307.98998,389.84007 c 0,0 -1.61638,10.10795 0.0714,16.08027 0,0 -0.71408,11.87971 6.23198,18.89069 0,0 8.82864,4.28448 7.33556,7.85488 0,0 -13.17804,0.25967 -8.37422,-5.90739"
       id="path14886"
       inkscape:connector-curvature="0"
       sodipodi:nodetypes="ccccc" />
    <path
       style="fill:#112b00;stroke:#000000;stroke-width:1.0267179;stroke-linecap:round;stroke-linejoin:round;stroke-miterlimit:4;stroke-opacity:1;stroke-dasharray:none;stroke-dashoffset:0"
       d="m 347.85521,399.36378 c 0,0 -0.64917,-28.56324 -26.22625,-24.92792 0,0 -18.30644,3.76515 -12.85346,28.04391"
       id="path14884"
       inkscape:connector-curvature="0" />
    <path
       style="fill:#504416;fill-opacity:1;fill-rule:evenodd;stroke:#504416;stroke-width:0.27023214;stroke-linecap:round;stroke-linejoin:round;stroke-miterlimit:4;stroke-opacity:1;stroke-dasharray:none;stroke-dashoffset:0"
       d="m 330.9212,418.0893 c -0.38526,-0.57215 -1.19616,-0.93026 -2.10646,-0.93026 l -0.50376,0 -0.0454,-0.95752 c -0.0933,-1.9665 -0.3708,-4.79495 -0.8201,-8.35799 -0.2138,-1.69544 -0.75629,-5.62585 -0.8081,-5.85477 -0.0272,-0.11999 0.031,-0.17541 0.37381,-0.3559 0.22329,-0.11758 0.5692,-0.37518 0.76869,-0.57245 l 0.36272,-0.35866 0.25399,0.0766 c 1.00033,0.30186 2.6045,-0.30425 2.793,-1.05529 0.039,-0.15529 0.0525,-0.1439 0.21394,0.17971 0.1347,0.27004 0.24828,0.391 0.52007,0.55384 0.19125,0.11459 0.48246,0.22631 0.64714,0.24828 0.16467,0.022 0.33041,0.0493 0.36832,0.0608 0.0379,0.0115 0.1361,0.32334 0.21822,0.69301 0.27133,1.22143 1.56078,6.35728 1.99345,7.93989 0.51781,1.894 1.18025,4.05739 1.45138,4.73992 0.11037,0.27785 0.1922,0.51216 0.18185,0.52069 -0.0103,0.009 -0.13471,0.0696 -0.27634,0.13569 -0.14163,0.0661 -0.36073,0.22338 -0.48688,0.34953 l -0.22936,0.22936 -0.28965,-0.14606 c -0.54131,-0.27297 -1.89194,-0.15553 -2.76525,0.24045 -1.03121,0.46758 -1.44474,1.28277 -1.17609,2.31844 l 0.086,0.33135 -0.26591,0.12918 -0.2659,0.12919 -0.19331,-0.28709 0,0 z"
       id="path14948"
       inkscape:connector-curvature="0" />
    <path
       style="fill:#677821;fill-opacity:1;fill-rule:evenodd;stroke:#677821;stroke-width:0.20534357;stroke-linecap:round;stroke-linejoin:round;stroke-miterlimit:4;stroke-opacity:1;stroke-dasharray:none;stroke-dashoffset:0"
       d="m 330.9308,385.17146 c -0.0209,-0.31241 -0.0557,-1.06463 -0.0774,-1.6716 l -0.0393,-1.10358 0.25738,-0.24896 0.25739,-0.24896 0.32172,0.23114 c 0.46109,0.33126 1.09258,0.61075 1.64755,0.72918 0.56866,0.12136 1.62946,0.0863 2.21779,-0.0732 0.37154,-0.10076 0.37603,-0.10028 0.74654,0.0793 l 0.37276,0.18068 0.0825,0.99945 c 0.0454,0.5497 0.07,1.01195 0.0547,1.02722 -0.0153,0.0153 -0.11539,-0.0175 -0.22249,-0.0729 -0.10711,-0.0554 -0.42386,-0.16642 -0.70389,-0.24674 -0.73343,-0.21037 -2.16615,-0.21076 -2.89802,-8.2e-4 -0.57448,0.16481 -1.16766,0.4461 -1.61987,0.76812 -0.16968,0.12083 -0.31994,0.21969 -0.33392,0.21969 -0.014,0 -0.0426,-0.25561 -0.0635,-0.56802 z"
       id="path14946"
       inkscape:connector-curvature="0" />
    <path
       style="fill:#677821;fill-opacity:1;fill-rule:evenodd;stroke:#677821;stroke-width:0.51335895;stroke-linecap:round;stroke-linejoin:round;stroke-miterlimit:4;stroke-opacity:1;stroke-dasharray:none;stroke-dashoffset:0"
       d="m 315.73959,388.30203 c -0.039,-0.063 0.41039,-0.42819 0.99855,-0.81145 0.58815,-0.38326 1.70147,-1.31382 2.47405,-2.0679 l 1.40468,-1.37105 0.31824,0.54304 c 0.27468,0.46871 1.09197,2.65795 1.09197,2.92502 0,0.0512 -0.27752,-0.0105 -0.61671,-0.137 -1.71306,-0.6389 -3.60674,-0.36551 -5.04328,0.7281 -0.44191,0.33642 -0.52258,0.36101 -0.6275,0.19124 z"
       id="path14938"
       inkscape:connector-curvature="0" />
    <path
       style="fill:#677821;stroke:#000000;stroke-width:1.0267179;stroke-linecap:round;stroke-linejoin:round;stroke-miterlimit:4;stroke-opacity:1;stroke-dasharray:none;stroke-dashoffset:0"
       d="m 323.516,394.24265 c 0,0 -0.82625,7.48216 -4.728,5.82966 -3.90174,-1.6525 -3.58042,-3.53452 -3.44271,-6.15098 0.13771,-2.61647 -0.41312,-6.10508 -0.41312,-6.10508"
       id="path14920"
       inkscape:connector-curvature="0" />
    <path
       style="fill:#112b00;stroke:#000000;stroke-width:1.0267179;stroke-linecap:round;stroke-linejoin:round;stroke-miterlimit:4;stroke-opacity:1;stroke-dasharray:none;stroke-dashoffset:0"
       d="m 305.8434,441.6144 c 0,0 -17.06473,-2.72171 -4.94637,-10.4334"
       id="path14843"
       inkscape:connector-curvature="0"
       sodipodi:nodetypes="cc" />
    <path
       style="fill:#112b00;stroke:#000000;stroke-width:1.0267179;stroke-linecap:round;stroke-linejoin:round;stroke-miterlimit:4;stroke-opacity:1;stroke-dasharray:none;stroke-dashoffset:0"
       d="m 305.14018,435.7819 c 0,0 -9.44534,-1.52553 -0.6167,-8.79617"
       id="path14845"
       inkscape:connector-curvature="0"
       sodipodi:nodetypes="cc" />
    <path
       style="fill:#112b00;stroke:#000000;stroke-width:1.0267179;stroke-linecap:round;stroke-linejoin:round;stroke-miterlimit:4;stroke-opacity:1;stroke-dasharray:none;stroke-dashoffset:0"
       d="m 309.74925,417.28072 c 0,0 -12.65871,10.84104 2.33699,12.59379"
       id="path14847"
       inkscape:connector-curvature="0"
       sodipodi:nodetypes="cc" />
    <path
       style="fill:#112b00;stroke:#000000;stroke-width:1.0267179;stroke-linecap:round;stroke-linejoin:round;stroke-miterlimit:4;stroke-opacity:1;stroke-dasharray:none;stroke-dashoffset:0"
       d="m 307.54209,440.06639 c 0,0 -10.51646,9.0883 18.04677,3.9599 0,0 12.13938,4.67399 23.88926,0 0,0 20.05918,3.83007 13.30787,-8.3093 0,0 5.77756,-3.70024 4.47923,-8.11456"
       id="path14849"
       inkscape:connector-curvature="0" />
    <path
       style="fill:none;stroke:#000000;stroke-width:1.0267179;stroke-linecap:round;stroke-linejoin:round;stroke-miterlimit:4;stroke-opacity:1;stroke-dasharray:none;stroke-dashoffset:0"
       d="m 346.88146,441.55947 c 0,0 1.49308,-12.07446 14.6062,-5.64773"
       id="path14851"
       inkscape:connector-curvature="0" />
    <path
       style="fill:#112b00;stroke:#000000;stroke-width:1.0267179;stroke-linecap:round;stroke-linejoin:round;stroke-miterlimit:4;stroke-opacity:1;stroke-dasharray:none;stroke-dashoffset:0"
       d="m 361.48766,433.12033 c 0,0 16.48878,-8.6988 -0.71408,-21.55226"
       id="path14855"
       inkscape:connector-curvature="0" />
    <path
       style="fill:#112b00;stroke:#000000;stroke-width:1.0267179;stroke-linecap:round;stroke-linejoin:round;stroke-miterlimit:4;stroke-opacity:1;stroke-dasharray:none;stroke-dashoffset:0"
       d="m 361.81224,418.57904 c 0,0 0.3895,9.28306 -2.14224,8.95848"
       id="path14857"
       inkscape:connector-curvature="0" />
    <path
       style="fill:#112b00;stroke:#000000;stroke-width:1.0267179;stroke-linecap:round;stroke-linejoin:round;stroke-miterlimit:4;stroke-opacity:1;stroke-dasharray:none;stroke-dashoffset:0"
       d="m 357.29037,409.19305 3.77438,2.59272"
       id="path14859"
       inkscape:connector-curvature="0"
       sodipodi:nodetypes="cc" />
    <path
       style="fill:#112b00;stroke:#000000;stroke-width:1.0267179;stroke-linecap:round;stroke-linejoin:round;stroke-miterlimit:4;stroke-opacity:1;stroke-dasharray:none;stroke-dashoffset:0"
       d="m 349.42895,398.6497 c 0,0 11.53938,8.04964 8.29356,23.88925"
       id="path14861"
       inkscape:connector-curvature="0"
       sodipodi:nodetypes="cc" />
    <path
       style="fill:#112b00;stroke:#000000;stroke-width:1.0267179;stroke-linecap:round;stroke-linejoin:round;stroke-miterlimit:4;stroke-opacity:1;stroke-dasharray:none;stroke-dashoffset:0"
       d="m 348.89387,406.37475 c 0,0 2.04717,-9.94009 -1.3934,-11.10859"
       id="path14863"
       inkscape:connector-curvature="0"
       sodipodi:nodetypes="cc" />
    <path
       style="fill:none;stroke:#000000;stroke-width:1.0267179;stroke-linecap:round;stroke-linejoin:round;stroke-miterlimit:4;stroke-opacity:1;stroke-dasharray:none;stroke-dashoffset:0"
       d="m 311.8915,429.03059 c 0,0 -3.05108,-0.51933 1.49307,-4.80381"
       id="path14888"
       inkscape:connector-curvature="0" />
    <path
       style="fill:none;stroke:#000000;stroke-width:1.0267179;stroke-linecap:round;stroke-linejoin:round;stroke-miterlimit:4;stroke-opacity:1;stroke-dasharray:none;stroke-dashoffset:0"
       d="m 342.85664,425.13561 c 0,0 -1.03866,-2.98616 1.29833,-3.37566 2.33699,-0.3895 1.88258,2.27208 1.88258,2.27208 0,0 5.19331,1.81766 0.32458,5.84248 -4.86874,4.02482 -3.50549,-4.7389 -3.50549,-4.7389 z"
       id="path14892"
       inkscape:connector-curvature="0" />
    <path
       style="fill:none;stroke:#000000;stroke-width:1.0267179;stroke-linecap:round;stroke-linejoin:round;stroke-miterlimit:4;stroke-opacity:1;stroke-dasharray:none;stroke-dashoffset:0"
       d="m 343.31105,436.30124 c 0,0 3.44058,-2.07733 -0.19474,-2.98616 -3.83007,2.33699 0.19474,2.98616 0.19474,2.98616 z"
       id="path14896"
       inkscape:connector-curvature="0" />
    <path
       style="fill:none;stroke:#000000;stroke-width:1.0267179;stroke-linecap:round;stroke-linejoin:round;stroke-miterlimit:4;stroke-opacity:1;stroke-dasharray:none;stroke-dashoffset:0"
       d="m 327.37184,379.46192 c 0,0 0.50493,5.41654 3.62633,1.97383"
       id="path14898"
       inkscape:connector-curvature="0" />
    <path
       style="fill:none;stroke:#000000;stroke-width:1.0267179;stroke-linecap:round;stroke-linejoin:round;stroke-miterlimit:4;stroke-opacity:1;stroke-dasharray:none;stroke-dashoffset:0"
       d="m 330.44733,379.78325 c 0,0 1.42299,3.58042 5.27883,2.38694"
       id="path14900"
       inkscape:connector-curvature="0" />
    <path
       style="fill:none;stroke:#000000;stroke-width:1.0267179;stroke-linecap:round;stroke-linejoin:round;stroke-miterlimit:4;stroke-opacity:1;stroke-dasharray:none;stroke-dashoffset:0"
       d="m 337.14915,382.67513 0.22951,2.70826"
       id="path14902"
       inkscape:connector-curvature="0" />
    <path
       style="fill:none;stroke:#000000;stroke-width:1.0267179;stroke-linecap:round;stroke-linejoin:round;stroke-miterlimit:4;stroke-opacity:1;stroke-dasharray:none;stroke-dashoffset:0"
       d="m 330.26372,382.262 0.18361,4.68209"
       id="path14904"
       inkscape:connector-curvature="0" />
    <path
       style="fill:#677821;fill-opacity:1;stroke:#000000;stroke-width:1.0267179;stroke-linecap:round;stroke-linejoin:round;stroke-miterlimit:4;stroke-opacity:1;stroke-dasharray:none;stroke-dashoffset:0"
       d="m 331.87032,392.36063 c 0,0 2.80008,6.33459 5.27883,3.94764 2.47875,-2.38694 2.57056,-2.66236 1.6525,-5.96737"
       id="path14908"
       inkscape:connector-curvature="0" />
    <path
       sodipodi:type="arc"
       style="fill:#ffe680;stroke:#000000;stroke-width:5;stroke-linecap:round;stroke-linejoin:round;stroke-miterlimit:4;stroke-opacity:1;stroke-dasharray:none;stroke-dashoffset:0"
       id="path14910"
       sodipodi:cx="293.06323"
       sodipodi:cy="159.31293"
       sodipodi:rx="21.683548"
       sodipodi:ry="17.883339"
       d="m 314.74678,159.31293 a 21.683548,17.883339 0 1 1 -43.3671,0 21.683548,17.883339 0 1 1 43.3671,0 z"
       transform="matrix(0.20450695,0,0,0.22101333,274.46151,353.86829)" />
    <path
       transform="matrix(0.20333847,0,0,0.24398111,259.93142,353.12406)"
       d="m 314.74678,159.31293 a 21.683548,17.883339 0 1 1 -43.3671,0 21.683548,17.883339 0 1 1 43.3671,0 z"
       sodipodi:ry="17.883339"
       sodipodi:rx="21.683548"
       sodipodi:cy="159.31293"
       sodipodi:cx="293.06323"
       id="path14912"
       style="fill:#ffe680;stroke:#000000;stroke-width:5;stroke-linecap:round;stroke-linejoin:round;stroke-miterlimit:4;stroke-opacity:1;stroke-dasharray:none;stroke-dashoffset:0"
       sodipodi:type="arc" />
    <path
       style="fill:none;stroke:#000000;stroke-width:1.0267179;stroke-linecap:round;stroke-linejoin:round;stroke-miterlimit:4;stroke-opacity:1;stroke-dasharray:none;stroke-dashoffset:0"
       d="m 321.67988,381.38985 c 0,0 -2.61646,4.9116 -7.61987,6.83952"
       id="path14914"
       inkscape:connector-curvature="0" />
    <path
       style="fill:#668000;stroke:#000000;stroke-width:1.0267179;stroke-linecap:round;stroke-linejoin:round;stroke-miterlimit:4;stroke-opacity:1;stroke-dasharray:none;stroke-dashoffset:0"
       d="m 320.62412,382.90464 c 0,0 2.66236,3.80994 1.92792,5.87557"
       id="path14918"
       inkscape:connector-curvature="0" />
    <path
       style="fill:none;stroke:#000000;stroke-width:1.0267179;stroke-linecap:round;stroke-linejoin:round;stroke-miterlimit:4;stroke-opacity:1;stroke-dasharray:none;stroke-dashoffset:0"
       d="m 324.75538,399.24606 c 0,0 -0.13771,3.07549 1.97382,1.92792 2.11153,-1.14757 0.64264,-2.70827 0.64264,-2.70827 0,0 0.0918,2.38695 2.34105,1.74431 2.24924,-0.64264 0.1377,-2.43285 0.1377,-2.43285"
       id="path14924"
       inkscape:connector-curvature="0" />
    <path
       style="fill:none;stroke:#000000;stroke-width:1.0267179;stroke-linecap:round;stroke-linejoin:round;stroke-miterlimit:4;stroke-opacity:1;stroke-dasharray:none;stroke-dashoffset:0"
       d="m 330.99817,398.55752 0.87215,0.0459 c 0,0 -0.64264,1.6984 1.37709,1.6066 2.01972,-0.0918 0.91805,-1.74431 0.59673,-2.29515"
       id="path14926"
       inkscape:connector-curvature="0" />
    <path
       style="fill:none;stroke:#000000;stroke-width:1.0267179;stroke-linecap:round;stroke-linejoin:round;stroke-miterlimit:4;stroke-opacity:1;stroke-dasharray:none;stroke-dashoffset:0"
       d="m 333.52282,400.62315 c 0,0 3.30501,14.45939 4.31487,14.5971"
       id="path14930"
       inkscape:connector-curvature="0" />
    <path
       style="fill:none;stroke:#000000;stroke-width:1.0267179;stroke-linecap:round;stroke-linejoin:round;stroke-miterlimit:4;stroke-opacity:1;stroke-dasharray:none;stroke-dashoffset:0"
       d="m 326.04066,401.67891 c 0,0 2.43285,16.0201 1.46889,16.61684"
       id="path14932"
       inkscape:connector-curvature="0" />
    <path
       style="fill:none;stroke:#000000;stroke-width:1.0267179;stroke-linecap:round;stroke-linejoin:round;stroke-miterlimit:4;stroke-opacity:1;stroke-dasharray:none;stroke-dashoffset:0"
       d="m 327.50955,420.13186 c 0,0 -0.59674,-2.75417 1.6066,-2.43285 2.20334,0.32132 1.46889,2.11153 1.46889,2.11153"
       id="path14934"
       inkscape:connector-curvature="0" />
    <path
       style="fill:none;stroke:#000000;stroke-width:1.0267179;stroke-linecap:round;stroke-linejoin:round;stroke-miterlimit:4;stroke-opacity:1;stroke-dasharray:none;stroke-dashoffset:0"
       d="m 330.67685,419.2138 1.7443,-0.87215 c 0,0 -1.6066,-2.06563 1.4689,-2.66237 3.07549,-0.59674 1.28528,2.15744 1.28528,2.15744 l 0.91805,-0.41313 c 0,0 -0.73444,-2.43285 1.79022,-2.34105 2.52465,0.0918 2.52465,1.5607 1.05576,3.58043"
       id="path14936"
       inkscape:connector-curvature="0" />
    <g
       id="g4460">
      <path
         style="fill:#112b00;fill-opacity:1;fill-rule:evenodd;stroke:#112b00;stroke-width:2.5;stroke-linecap:round;stroke-linejoin:round;stroke-miterlimit:4;stroke-opacity:1;stroke-dasharray:none;stroke-dashoffset:0"
         d="m 396.31503,435.18588 c -0.6829,-1.44804 -1.25984,-2.67977 -1.28209,-2.73717 -0.0223,-0.0574 0.3133,0.0123 0.74569,0.15498 0.974,0.32132 1.6497,0.33708 1.76327,0.0411 0.15218,-0.39658 0.0874,-0.71127 -0.18595,-0.90311 -0.24436,-0.1715 -0.29616,-0.55656 -0.55156,-4.10022 -0.15503,-2.15103 -0.2453,-3.97012 -0.20061,-4.04243 0.0447,-0.0723 0.37844,0.14651 0.74167,0.48627 1.17574,1.09977 3.1931,1.93313 5.66057,2.33835 1.09669,0.18011 1.21407,0.23291 1.81208,0.81519 0.35169,0.34244 0.99603,0.79131 1.43187,0.9975 1.62892,0.7706 4.68683,1.31567 7.38109,1.31567 1.18458,0 1.24254,-0.0145 1.47489,-0.36912 0.37194,-0.56766 0.29433,-1.80249 -0.17447,-2.77571 -0.76537,-1.58888 -3.39582,-3.83806 -6.61406,-5.65539 -0.9094,-0.51354 -1.422,-0.91577 -1.91576,-1.50329 -1.47448,-1.75449 -1.22643,-0.70524 -2.86121,-12.10295 -0.80628,-5.62141 -1.45813,-10.23045 -1.44856,-10.24233 0.01,-0.0119 3.52269,-0.30116 7.80694,-0.64285 l 7.78955,-0.62125 0.39508,0.33244 c 0.2173,0.18285 0.44329,0.33244 0.5022,0.33244 0.10762,0 0.54834,2.9985 1.17607,8.0016 0.64346,5.1284 0.76053,7.51784 0.473,9.6543 -0.22909,1.70228 0.11802,2.59858 0.85385,2.20478 0.14626,-0.0783 0.27087,-0.18669 0.27691,-0.24093 0.006,-0.0542 0.0216,-0.47713 0.0345,-0.93976 0.0312,-1.11739 0.22961,-1.35374 1.04276,-1.24229 0.88292,0.12102 1.1191,0.38742 1.1191,1.2623 0,0.53168 0.0577,0.74476 0.21822,0.80637 0.41772,0.1603 0.61523,0.081 0.87902,-0.35273 0.1551,-0.25505 0.59869,-0.61346 1.06715,-0.86224 0.90769,-0.48205 1.03227,-0.77234 0.66426,-1.54787 -0.20576,-0.4336 -0.20751,-0.51275 -0.0178,-0.80233 0.35155,-0.53654 2.25875,-1.019 2.49798,-0.63191 0.0455,0.0736 -0.0495,0.44114 -0.21104,0.81672 -0.32178,0.748 -0.31664,1.08496 0.0198,1.29678 0.28381,0.1787 0.7782,0.0509 1.37465,-0.35539 0.44791,-0.3051 0.47229,-0.36224 0.43267,-1.01412 -0.0601,-0.98906 0.24302,-1.32822 1.22662,-1.37242 0.40905,-0.0184 0.94618,0.0512 1.19362,0.15457 0.38132,0.15932 0.4499,0.25863 0.4499,0.65149 0,0.28503 -0.18594,0.7723 -0.48286,1.26538 -0.26557,0.44103 -0.48285,0.88239 -0.48285,0.9808 0,0.72892 0.7709,0.86258 1.2329,0.21376 0.53031,-0.74475 0.97171,-1.8642 0.97308,-2.46786 0.003,-1.13462 -0.54841,-1.69492 -1.98202,-2.01554 l -0.67276,-0.15046 -0.38762,-1.00954 c -0.21319,-0.55525 -0.5858,-1.67271 -0.82802,-2.48325 -0.7349,-2.45923 -2.87894,-11.1245 -2.77682,-11.2227 0.0526,-0.0505 3.19209,-0.33745 6.97674,-0.63757 6.54812,-0.51926 6.89284,-0.53401 7.12211,-0.30474 0.13251,0.13252 0.32099,0.26762 0.41883,0.30024 0.11979,0.0399 0.27612,0.84549 0.47855,2.466 0.2495,1.99723 0.27598,2.57827 0.1556,3.41506 -0.15041,1.04549 -0.0624,1.43321 0.34356,1.51338 0.63958,0.12632 0.94736,-1.00466 1.24846,-4.58757 0.0891,-1.06034 0.1915,-1.83635 0.22753,-1.72448 0.036,0.11187 1.74021,5.0147 3.78704,10.89519 3.43996,9.8829 3.71985,10.75673 3.69957,11.55024 -0.0211,0.82521 -0.007,0.86208 0.35083,0.95202 0.59439,0.14918 0.79637,-0.2527 1.09338,-2.17556 0.49568,-3.20905 0.27756,-7.94964 -0.48742,-10.59348 -0.0754,-0.26055 -0.11227,-0.49852 -0.082,-0.52882 0.0303,-0.0303 0.67249,0.36911 1.42706,0.88759 l 1.37197,0.9427 0.0851,1.3106 c 0.0468,0.72083 0.12627,2.95576 0.17662,4.96651 l 0.0915,3.6559 -0.67153,2.85551 c -0.60818,2.5861 -0.70113,2.86295 -0.98522,2.93425 -0.23747,0.0596 -0.31369,0.17748 -0.31369,0.48513 0,0.78043 0.9705,0.88047 1.79676,0.18521 l 0.41058,-0.34547 0,0.76174 c 0,0.60736 -0.0489,0.77563 -0.24143,0.83032 -0.13279,0.0377 -12.80911,2.68798 -28.1696,5.88945 -22.16881,4.62048 -27.97931,5.78892 -28.17616,5.66599 -0.51736,-0.3231 -0.88674,-0.17976 -1.55624,0.6039 -0.35653,0.41732 -0.72104,0.75632 -0.81002,0.75334 -0.089,-0.003 -0.72052,-1.1902 -1.40341,-2.63824 z m 43.85099,-7.94081 c 0.39029,-0.20724 1.21251,-0.8749 1.82716,-1.48368 0.8852,-0.87676 1.17919,-1.27288 1.41407,-1.90532 0.16309,-0.43914 0.29619,-0.96683 0.29576,-1.17264 -0.002,-1.09057 -0.67341,-2.12824 -1.86354,-2.88118 -0.53688,-0.33965 -0.61087,-0.45079 -0.69178,-1.03905 -0.18623,-1.35407 -1.09253,-2.11039 -2.38448,-1.98987 -1.55829,0.14535 -2.40483,1.04285 -2.40073,2.54523 10e-4,0.43082 0.005,1.89024 0.009,3.24314 0.008,2.62541 0.17449,3.61699 0.74322,4.41571 0.61379,0.86198 1.74494,0.96122 3.05107,0.26766 l 10e-6,0 z"
         id="path14970"
         inkscape:connector-curvature="0" />
      <rect
         ry="0.18540928"
         y="408.70532"
         x="444.32458"
         height="15.727273"
         width="13.519936"
         id="rect15093"
         style="fill:#112b00;fill-opacity:1;fill-rule:evenodd;stroke:#112b00;stroke-width:0.65458518;stroke-linecap:round;stroke-linejoin:round;stroke-miterlimit:4;stroke-opacity:1;stroke-dasharray:none;stroke-dashoffset:0" />
      <rect
         ry="0.18540928"
         y="413.94775"
         x="401.41949"
         height="4.966507"
         width="7.4497604"
         id="rect15091"
         style="fill:#112b00;fill-opacity:1;fill-rule:evenodd;stroke:#112b00;stroke-width:0.65458518;stroke-linecap:round;stroke-linejoin:round;stroke-miterlimit:4;stroke-opacity:1;stroke-dasharray:none;stroke-dashoffset:0" />
      <rect
         ry="0.18540928"
         y="394.14301"
         x="440.52905"
         height="5.1446419"
         width="5.9250531"
         id="rect15089"
         style="fill:#112b00;fill-opacity:1;fill-rule:evenodd;stroke:#112b00;stroke-width:0.72894394;stroke-linecap:round;stroke-linejoin:round;stroke-miterlimit:4;stroke-opacity:1;stroke-dasharray:none;stroke-dashoffset:0" />
      <path
         inkscape:connector-curvature="0"
         id="path15085"
         d="m 450.24812,409.54397 c -0.26189,-0.75815 -1.43095,-4.12209 -2.59792,-7.47542 l -2.12177,-6.09696 -0.007,-0.67484 -0.007,-0.67484 -0.13685,-0.11777 c -0.16168,-0.13913 -0.37509,-0.1521 -0.55569,-0.0338 l -0.12819,0.084 0.03,-0.19374 c 0.0695,-0.44928 0.14456,-1.30785 0.19758,-2.26038 l 0.0566,-1.01763 2.89336,9.89971 c 1.59134,5.44485 2.88426,9.90881 2.87315,9.91992 -0.0111,0.0111 -0.23446,-0.60011 -0.49634,-1.35827 l 0,0 z"
         style="fill:#112b00;fill-opacity:1;fill-rule:evenodd;stroke:#112b00;stroke-width:0.65458518;stroke-linecap:round;stroke-linejoin:round;stroke-miterlimit:4;stroke-opacity:1;stroke-dasharray:none;stroke-dashoffset:0" />
      <path
         inkscape:connector-curvature="0"
         id="path15087"
         d="m 443.41624,401.10523 c -0.0163,-0.0872 0.005,-0.48511 0.0466,-0.88427 0.091,-0.86586 0.0922,-1.2532 0.007,-2.12763 -0.0355,-0.36216 -0.0559,-0.66798 -0.0453,-0.67961 0.0105,-0.0116 0.0451,0.005 0.0769,0.0366 0.15336,0.15337 0.67439,-0.011 0.74556,-0.23524 0.0757,-0.2385 0.0695,-0.0114 -0.0248,0.90759 -0.1162,1.13283 -0.2143,1.79681 -0.34385,2.32729 -0.17673,0.72367 -0.39159,1.02872 -0.46155,0.65529 z"
         style="fill:#112b00;fill-opacity:1;fill-rule:evenodd;stroke:#112b00;stroke-width:0.65458518;stroke-linecap:round;stroke-linejoin:round;stroke-miterlimit:4;stroke-opacity:1;stroke-dasharray:none;stroke-dashoffset:0" />
      <path
         inkscape:connector-curvature="0"
         id="path15081"
         d="m 402.55073,396.43428 c -0.008,-0.0353 -0.12198,-0.86367 -0.25263,-1.84071 l -0.23756,-1.77643 2.82328,-0.21797 2.82328,-0.21798 0.94743,0.88621 c 0.52109,0.48742 1.44946,1.11996 2.06305,1.40566 2.30417,1.07286 3.941,0.50697 5.12195,-1.77077 l 0.6525,-1.25849 1.86529,-0.12253 c 1.02591,-0.0674 2.56766,-0.17296 3.42611,-0.23459 1.1877,-0.0853 1.4792,-0.0601 1.21939,0.10532 -0.47424,0.30193 -0.42768,0.65085 0.18384,1.3776 0.5066,0.60206 0.51221,0.63379 0.15781,0.89293 -0.71604,0.52358 -1.23994,0.33768 -1.69645,-0.60195 -0.44274,-0.91129 -0.74151,-1.14341 -1.23031,-0.95584 -0.33313,0.12783 -0.38524,0.97226 -0.10541,1.70825 0.15869,0.41738 0.11005,0.5532 -0.31897,0.89066 -0.27841,0.219 -0.62823,0.39819 -0.77738,0.39819 -0.30866,0 -0.65172,-0.77333 -0.65172,-1.46911 0,-0.63555 -0.64504,-0.97962 -1.05951,-0.56515 -0.34741,0.34741 -0.3608,0.49136 -0.1357,1.45913 l 0.1612,0.69305 -6.94568,0.53497 c -3.82012,0.29424 -7.18711,0.58197 -7.48221,0.63941 -0.29509,0.0574 -0.54331,0.0755 -0.5516,0.0401 z"
         style="fill:#112b00;fill-opacity:1;fill-rule:evenodd;stroke:#112b00;stroke-width:1.28582358;stroke-linecap:round;stroke-linejoin:round;stroke-miterlimit:4;stroke-opacity:1;stroke-dasharray:none;stroke-dashoffset:0" />
      <path
         inkscape:connector-curvature="0"
         id="path15083"
         d="m 443.16259,395.25734 c -0.0239,-0.81737 -0.40394,-1.47319 -0.99583,-1.71836 -0.52545,-0.21765 -5.45801,0.0579 -10.62819,0.59371 -2.77536,0.28762 -2.75095,0.29158 -2.75095,-0.44608 0,-0.89239 -0.67032,-2.19418 -1.12984,-2.19418 -0.62804,0 -0.81235,0.54849 -0.44467,1.32332 0.40335,0.85 0.40324,0.85462 -0.0228,0.96604 -0.5897,0.15421 -1.26849,-0.19924 -1.16233,-0.60521 0.15212,-0.58168 -0.2085,-1.00129 -0.86051,-1.00129 -0.34697,0 -0.83209,-0.19847 -1.16044,-0.47476 -0.69456,-0.58442 -0.6123,-0.61731 1.97116,-0.78805 1.63397,-0.10799 1.94501,-0.0751 2.62636,0.2775 1.16356,0.60219 1.93948,0.49988 2.93407,-0.38685 0.32307,-0.28804 1.25846,-0.4188 5.43682,-0.76001 l 5.04661,-0.41212 0.43318,0.4674 c 0.35756,0.38582 0.47734,0.87521 0.68619,2.8036 0.13916,1.28491 0.20433,2.45916 0.14482,2.60944 -0.0595,0.15029 -0.11513,0.036 -0.1236,-0.2541 l 0,0 z"
         style="fill:#112b00;fill-opacity:1;fill-rule:evenodd;stroke:#112b00;stroke-width:1.28582358;stroke-linecap:round;stroke-linejoin:round;stroke-miterlimit:4;stroke-opacity:1;stroke-dasharray:none;stroke-dashoffset:0" />
      <path
         style="fill:#225500;fill-opacity:1;fill-rule:evenodd;stroke:#225500;stroke-width:0.46191898;stroke-linecap:round;stroke-linejoin:round;stroke-miterlimit:4;stroke-opacity:1;stroke-dasharray:none;stroke-dashoffset:0"
         d="m 438.21783,426.35972 c -0.5297,-0.60413 -0.71515,-1.69142 -0.61145,-3.58501 0.10003,-1.82647 0.099,-1.94718 -0.0232,-2.69446 -0.20494,-1.2535 0.16292,-1.95081 1.10355,-2.09186 0.8475,-0.12709 1.22751,0.26459 1.26621,1.30508 0.0133,0.35874 0.0284,0.70638 0.0335,0.77254 0.005,0.0662 0.23968,0.23669 0.52137,0.37895 1.76836,0.89306 2.30076,1.8821 1.68177,3.12425 -0.32151,0.6452 -1.15127,1.55251 -1.98514,2.17068 -1.0437,0.77373 -1.67811,0.97167 -1.9866,0.61983 z"
         id="path14962"
         inkscape:connector-curvature="0" />
      <rect
         style="fill:#112b00;fill-opacity:1;fill-rule:evenodd;stroke:#112b00;stroke-width:0.54526949;stroke-linecap:round;stroke-linejoin:round;stroke-miterlimit:4;stroke-opacity:1;stroke-dasharray:none;stroke-dashoffset:0"
         id="rect14964"
         width="0.29531747"
         height="1.1079794"
         x="444.93967"
         y="394.66818"
         ry="0.14765874" />
      <path
         style="fill:#112b00;fill-opacity:1;fill-rule:evenodd;stroke:#112b00;stroke-width:0.54526949;stroke-linecap:round;stroke-linejoin:round;stroke-miterlimit:4;stroke-opacity:1;stroke-dasharray:none;stroke-dashoffset:0"
         d="m 404.05732,423.81106 c -0.0518,-0.28236 -0.10054,-0.53711 -0.1084,-0.56612 -0.0179,-0.0662 0.22784,-0.50025 0.48713,-0.86038 0.22359,-0.31054 0.98067,-1.18579 1.00481,-1.16165 0.0179,0.0179 0.15509,0.92748 0.14095,0.93428 -0.005,0.002 -0.0653,0.0299 -0.1339,0.061 -0.28553,0.12952 -0.94325,1.14165 -1.20321,1.85155 l -0.0933,0.25472 -0.0941,-0.51339 z"
         id="path14966"
         inkscape:connector-curvature="0" />
      <path
         style="fill:#112b00;fill-opacity:1;fill-rule:evenodd;stroke:#112b00;stroke-width:0.54526949;stroke-linecap:round;stroke-linejoin:round;stroke-miterlimit:4;stroke-opacity:1;stroke-dasharray:none;stroke-dashoffset:0"
         d="m 403.62404,421.52577 c 0,-0.0242 -0.24093,-1.34264 -0.5354,-2.9299 -0.29447,-1.58725 -0.54377,-2.94023 -0.554,-3.00663 -0.0126,-0.0817 0.0745,0.0575 0.2699,0.43113 0.43566,0.83332 0.82284,1.48924 1.31315,2.22458 0.26089,0.39126 0.9098,1.26818 1.05338,1.42349 l 0.0884,0.0956 -0.34597,0.35272 c -0.38301,0.39049 -0.84912,0.90655 -1.08177,1.19772 -0.21172,0.26496 -0.2077,0.26088 -0.2077,0.21125 z"
         id="path14968"
         inkscape:connector-curvature="0" />
      <path
         style="fill:#112b00;stroke:#000000;stroke-width:1.0909754;stroke-linecap:round;stroke-linejoin:round;stroke-miterlimit:4;stroke-opacity:1;stroke-dasharray:none;stroke-dashoffset:0"
         d="m 400.28915,379.37993 c 0,0 -1.71755,10.74056 0.0759,17.08665 0,0 -0.95388,16.72037 6.4269,24.17013 0,0 9.38118,4.55263 7.79466,8.34649 0,0 -14.00279,0.27592 -8.89833,-6.27711"
         id="path14972"
         inkscape:connector-curvature="0"
         sodipodi:nodetypes="ccccc" />
      <path
         style="fill:#112b00;stroke:#000000;stroke-width:1.0909754;stroke-linecap:round;stroke-linejoin:round;stroke-miterlimit:4;stroke-opacity:1;stroke-dasharray:none;stroke-dashoffset:0"
         d="m 442.64935,389.49968 c 0,0 -0.68979,-30.35088 -27.86762,-26.48804 0,0 -19.45215,4.0008 -13.65789,29.79904"
         id="path14974"
         inkscape:connector-curvature="0"
         sodipodi:nodetypes="ccc" />
      <path
         style="fill:#504416;fill-opacity:1;fill-rule:evenodd;stroke:#504416;stroke-width:0.28714472;stroke-linecap:round;stroke-linejoin:round;stroke-miterlimit:4;stroke-opacity:1;stroke-dasharray:none;stroke-dashoffset:0"
         d="m 424.46042,413.4943 c -0.40937,-0.60795 -1.27102,-0.98848 -2.23829,-0.98848 l -0.53529,0 -0.0483,-1.01744 c -0.0991,-2.08958 -0.39401,-5.09505 -0.87143,-8.88109 -0.22718,-1.80155 -0.80362,-5.97794 -0.85867,-6.22119 -0.0289,-0.1275 0.033,-0.18638 0.3972,-0.37817 0.23726,-0.12494 0.60482,-0.39866 0.81681,-0.60828 l 0.38542,-0.38111 0.26988,0.0814 c 1.06294,0.32076 2.7675,-0.32329 2.9678,-1.12134 0.0414,-0.165 0.0558,-0.1529 0.22733,0.19096 0.14313,0.28694 0.26382,0.41547 0.55262,0.5885 0.20322,0.12176 0.51266,0.24048 0.68764,0.26382 0.17498,0.0233 0.35109,0.0524 0.39137,0.0646 0.0403,0.0122 0.14462,0.34358 0.23187,0.73638 0.28832,1.29788 1.65847,6.75516 2.11822,8.43682 0.55022,2.01253 1.25411,4.31132 1.54221,5.03657 0.11728,0.29523 0.20423,0.5442 0.19323,0.55327 -0.011,0.009 -0.14314,0.074 -0.29363,0.14418 -0.1505,0.0702 -0.3833,0.23736 -0.51735,0.3714 l -0.24371,0.24372 -0.30778,-0.1552 c -0.57519,-0.29006 -2.01035,-0.16526 -2.93832,0.2555 -1.09575,0.49684 -1.53516,1.36305 -1.24969,2.46354 l 0.0913,0.35209 -0.28255,0.13727 -0.28255,0.13727 -0.20541,-0.30506 0,0 z"
         id="path14976"
         inkscape:connector-curvature="0" />
      <path
         style="fill:#677821;fill-opacity:1;fill-rule:evenodd;stroke:#677821;stroke-width:0.21819507;stroke-linecap:round;stroke-linejoin:round;stroke-miterlimit:4;stroke-opacity:1;stroke-dasharray:none;stroke-dashoffset:0"
         d="m 424.47062,378.51629 c -0.0222,-0.33196 -0.0592,-1.13126 -0.0822,-1.77622 l -0.0417,-1.17264 0.27349,-0.26454 0.2735,-0.26455 0.34185,0.24561 c 0.48995,0.35199 1.16097,0.64897 1.75067,0.77482 0.60424,0.12895 1.73144,0.0917 2.35659,-0.0778 0.39479,-0.10707 0.39956,-0.10656 0.79326,0.0843 l 0.39609,0.19199 0.0876,1.062 c 0.0482,0.58411 0.0744,1.07529 0.0581,1.09151 -0.0162,0.0162 -0.12262,-0.0186 -0.23642,-0.0775 -0.11381,-0.0589 -0.45038,-0.17683 -0.74794,-0.26218 -0.77933,-0.22353 -2.30172,-0.22394 -3.0794,-8.7e-4 -0.61043,0.17513 -1.24074,0.47402 -1.72124,0.8162 -0.1803,0.12839 -0.33997,0.23344 -0.35482,0.23344 -0.0149,0 -0.0452,-0.27161 -0.0675,-0.60357 z"
         id="path14978"
         inkscape:connector-curvature="0" />
      <path
         style="fill:#677821;fill-opacity:1;fill-rule:evenodd;stroke:#677821;stroke-width:0.5454877;stroke-linecap:round;stroke-linejoin:round;stroke-miterlimit:4;stroke-opacity:1;stroke-dasharray:none;stroke-dashoffset:0"
         d="m 408.32867,381.84279 c -0.0414,-0.067 0.43607,-0.45499 1.06104,-0.86224 0.62496,-0.40725 1.80796,-1.39604 2.62889,-2.19732 l 1.49259,-1.45686 0.33816,0.57703 c 0.29187,0.49805 1.16031,2.8243 1.16031,3.10809 0,0.0543 -0.29488,-0.0111 -0.6553,-0.14558 -1.82028,-0.67889 -3.83248,-0.38838 -5.35892,0.77367 -0.46956,0.35747 -0.55528,0.3836 -0.66677,0.20321 z"
         id="path14980"
         inkscape:connector-curvature="0" />
      <path
         style="fill:#677821;stroke:#000000;stroke-width:1.0909754;stroke-linecap:round;stroke-linejoin:round;stroke-miterlimit:4;stroke-opacity:1;stroke-dasharray:none;stroke-dashoffset:0"
         d="m 416.59177,388.1552 c 0,0 -0.87797,7.95044 -5.0239,6.19451 -4.14594,-1.75592 -3.80451,-3.75573 -3.65818,-6.53594 0.14633,-2.78022 -0.43898,-6.48717 -0.43898,-6.48717"
         id="path14982"
         inkscape:connector-curvature="0" />
      <path
         style="fill:#112b00;stroke:#000000;stroke-width:1.0909754;stroke-linecap:round;stroke-linejoin:round;stroke-miterlimit:4;stroke-opacity:1;stroke-dasharray:none;stroke-dashoffset:0"
         d="m 397.81312,438.49173 c 0,0 -18.13273,-2.89206 -5.25594,-11.08638"
         id="path14984"
         inkscape:connector-curvature="0"
         sodipodi:nodetypes="cc" />
      <path
         style="fill:#112b00;stroke:#000000;stroke-width:1.0909754;stroke-linecap:round;stroke-linejoin:round;stroke-miterlimit:4;stroke-opacity:1;stroke-dasharray:none;stroke-dashoffset:0"
         d="m 397.06589,432.2942 c 0,0 -10.03648,-1.62101 -0.6553,-9.34669"
         id="path14986"
         inkscape:connector-curvature="0"
         sodipodi:nodetypes="cc" />
      <path
         style="fill:#112b00;stroke:#000000;stroke-width:1.0909754;stroke-linecap:round;stroke-linejoin:round;stroke-miterlimit:4;stroke-opacity:1;stroke-dasharray:none;stroke-dashoffset:0"
         d="m 401.96342,412.63511 c 0,0 -13.45096,11.51954 2.48325,13.38198"
         id="path14988"
         inkscape:connector-curvature="0"
         sodipodi:nodetypes="cc" />
      <path
         style="fill:#112b00;stroke:#000000;stroke-width:1.0909754;stroke-linecap:round;stroke-linejoin:round;stroke-miterlimit:4;stroke-opacity:1;stroke-dasharray:none;stroke-dashoffset:0"
         d="m 399.61813,436.84683 c 0,0 -11.17464,9.6571 19.17623,4.20774 0,0 12.89912,4.96651 25.38437,0 0,0 21.31459,4.06978 14.14075,-8.82935 0,0 6.13915,-3.93181 4.75957,-8.62241"
         id="path14990"
         inkscape:connector-curvature="0" />
      <path
         style="fill:none;stroke:#000000;stroke-width:1.0909754;stroke-linecap:round;stroke-linejoin:round;stroke-miterlimit:4;stroke-opacity:1;stroke-dasharray:none;stroke-dashoffset:0"
         d="m 441.41956,438.43336 c 0,0 1.58652,-12.83015 15.52034,-6.0012"
         id="path14992"
         inkscape:connector-curvature="0" />
      <path
         style="fill:#112b00;stroke:#000000;stroke-width:1.0909754;stroke-linecap:round;stroke-linejoin:round;stroke-miterlimit:4;stroke-opacity:1;stroke-dasharray:none;stroke-dashoffset:0"
         d="m 456.9399,429.46605 c 0,0 17.52073,-9.24322 -0.75878,-22.90111"
         id="path14994"
         inkscape:connector-curvature="0" />
      <path
         style="fill:#112b00;stroke:#000000;stroke-width:1.0909754;stroke-linecap:round;stroke-linejoin:round;stroke-miterlimit:4;stroke-opacity:1;stroke-dasharray:none;stroke-dashoffset:0"
         d="m 457.28479,414.0147 c 0,0 0.41388,9.86403 -2.27631,9.51914"
         id="path14996"
         inkscape:connector-curvature="0" />
      <path
         style="fill:#112b00;stroke:#000000;stroke-width:1.0909754;stroke-linecap:round;stroke-linejoin:round;stroke-miterlimit:4;stroke-opacity:1;stroke-dasharray:none;stroke-dashoffset:0"
         d="m 452.47991,404.04128 4.0106,2.75498"
         id="path14998"
         inkscape:connector-curvature="0"
         sodipodi:nodetypes="cc" />
      <path
         style="fill:#112b00;stroke:#000000;stroke-width:1.0909754;stroke-linecap:round;stroke-linejoin:round;stroke-miterlimit:4;stroke-opacity:1;stroke-dasharray:none;stroke-dashoffset:0"
         d="m 444.32159,388.7409 c 0,0 12.06647,12.65059 8.61751,29.48153"
         id="path15000"
         inkscape:connector-curvature="0"
         sodipodi:nodetypes="cc" />
      <path
         style="fill:#112b00;stroke:#000000;stroke-width:1.0909754;stroke-linecap:round;stroke-linejoin:round;stroke-miterlimit:4;stroke-opacity:1;stroke-dasharray:none;stroke-dashoffset:0"
         d="m 443.75302,396.94944 c 0,0 2.1753,-10.5622 -1.4806,-11.80383"
         id="path15002"
         inkscape:connector-curvature="0"
         sodipodi:nodetypes="cc" />
      <path
         style="fill:none;stroke:#000000;stroke-width:1.0909754;stroke-linecap:round;stroke-linejoin:round;stroke-miterlimit:4;stroke-opacity:1;stroke-dasharray:none;stroke-dashoffset:0"
         d="m 404.23974,425.12036 c 0,0 -3.24203,-0.55183 1.58652,-5.10447"
         id="path15004"
         inkscape:connector-curvature="0" />
      <path
         style="fill:none;stroke:#000000;stroke-width:1.0909754;stroke-linecap:round;stroke-linejoin:round;stroke-miterlimit:4;stroke-opacity:1;stroke-dasharray:none;stroke-dashoffset:0"
         d="m 437.14285,420.9816 c 0,0 -1.10367,-3.17304 1.37958,-3.58692 2.48326,-0.41387 2.0004,2.41428 2.0004,2.41428 0,0 5.51834,1.93142 0.3449,6.20813 -5.17345,4.27671 -3.72488,-5.03549 -3.72488,-5.03549 z"
         id="path15006"
         inkscape:connector-curvature="0" />
      <path
         style="fill:none;stroke:#000000;stroke-width:1.0909754;stroke-linecap:round;stroke-linejoin:round;stroke-miterlimit:4;stroke-opacity:1;stroke-dasharray:none;stroke-dashoffset:0"
         d="m 437.6257,432.84604 c 0,0 3.6559,-2.20734 -0.20694,-3.17305 -4.06977,2.48325 0.20694,3.17305 0.20694,3.17305 z"
         id="path15008"
         inkscape:connector-curvature="0" />
      <path
         style="fill:none;stroke:#000000;stroke-width:1.0909754;stroke-linecap:round;stroke-linejoin:round;stroke-miterlimit:4;stroke-opacity:1;stroke-dasharray:none;stroke-dashoffset:0"
         d="m 420.68893,372.44942 c 0,0 0.53653,5.75553 3.85328,2.09736"
         id="path15010"
         inkscape:connector-curvature="0" />
      <path
         style="fill:none;stroke:#000000;stroke-width:1.0909754;stroke-linecap:round;stroke-linejoin:round;stroke-miterlimit:4;stroke-opacity:1;stroke-dasharray:none;stroke-dashoffset:0"
         d="m 423.9569,372.79085 c 0,0 1.51204,3.80451 5.6092,2.53634"
         id="path15012"
         inkscape:connector-curvature="0" />
      <path
         style="fill:none;stroke:#000000;stroke-width:1.0909754;stroke-linecap:round;stroke-linejoin:round;stroke-miterlimit:4;stroke-opacity:1;stroke-dasharray:none;stroke-dashoffset:0"
         d="m 431.07815,375.86372 0.24388,2.87777"
         id="path15014"
         inkscape:connector-curvature="0" />
      <path
         style="fill:none;stroke:#000000;stroke-width:1.0909754;stroke-linecap:round;stroke-linejoin:round;stroke-miterlimit:4;stroke-opacity:1;stroke-dasharray:none;stroke-dashoffset:0"
         d="m 423.7618,375.42474 0.1951,4.97512"
         id="path15016"
         inkscape:connector-curvature="0" />
      <path
         style="fill:#677821;fill-opacity:1;stroke:#000000;stroke-width:1.0909754;stroke-linecap:round;stroke-linejoin:round;stroke-miterlimit:4;stroke-opacity:1;stroke-dasharray:none;stroke-dashoffset:0"
         d="m 425.46894,386.15539 c 0,0 2.97532,6.73105 5.60921,4.19471 2.63389,-2.53633 2.73144,-2.82899 1.75593,-6.34084"
         id="path15018"
         inkscape:connector-curvature="0" />
      <path
         sodipodi:type="arc"
         style="fill:#ffe680;stroke:#000000;stroke-width:5;stroke-linecap:round;stroke-linejoin:round;stroke-miterlimit:4;stroke-opacity:1;stroke-dasharray:none;stroke-dashoffset:0"
         id="path15020"
         sodipodi:cx="293.06323"
         sodipodi:cy="159.31293"
         sodipodi:rx="21.683548"
         sodipodi:ry="17.883339"
         d="m 314.74678,159.31293 c 0,9.87669 -9.70805,17.88334 -21.68355,17.88334 -11.97549,0 -21.68355,-8.00665 -21.68355,-17.88334 0,-9.8767 9.70806,-17.88334 21.68355,-17.88334 11.9755,0 21.68355,8.00664 21.68355,17.88334 z"
         transform="matrix(0.21730608,0,0,0.23484551,364.46719,345.254)" />
      <path
         transform="matrix(0.21606447,0,0,0.25925074,349.02773,344.46319)"
         d="m 314.74678,159.31293 c 0,9.87669 -9.70805,17.88334 -21.68355,17.88334 -11.97549,0 -21.68355,-8.00665 -21.68355,-17.88334 0,-9.8767 9.70806,-17.88334 21.68355,-17.88334 11.9755,0 21.68355,8.00664 21.68355,17.88334 z"
         sodipodi:ry="17.883339"
         sodipodi:rx="21.683548"
         sodipodi:cy="159.31293"
         sodipodi:cx="293.06323"
         id="path15022"
         style="fill:#ffe680;stroke:#000000;stroke-width:5;stroke-linecap:round;stroke-linejoin:round;stroke-miterlimit:4;stroke-opacity:1;stroke-dasharray:none;stroke-dashoffset:0"
         sodipodi:type="arc" />
      <path
         style="fill:none;stroke:#000000;stroke-width:1.0909754;stroke-linecap:round;stroke-linejoin:round;stroke-miterlimit:4;stroke-opacity:1;stroke-dasharray:none;stroke-dashoffset:0"
         d="m 414.64074,374.498 c 0,0 -2.78022,5.219 -8.09677,7.26758"
         id="path15024"
         inkscape:connector-curvature="0" />
      <path
         style="fill:#668000;stroke:#000000;stroke-width:1.0909754;stroke-linecap:round;stroke-linejoin:round;stroke-miterlimit:4;stroke-opacity:1;stroke-dasharray:none;stroke-dashoffset:0"
         d="m 413.5189,376.1076 c 0,0 2.82899,4.04838 2.04858,6.24329"
         id="path15026"
         inkscape:connector-curvature="0" />
      <path
         style="fill:none;stroke:#000000;stroke-width:1.0909754;stroke-linecap:round;stroke-linejoin:round;stroke-miterlimit:4;stroke-opacity:1;stroke-dasharray:none;stroke-dashoffset:0"
         d="m 417.90871,393.47175 c 0,0 -0.14633,3.26797 2.09735,2.04858 2.24369,-1.21939 0.68287,-2.87777 0.68287,-2.87777 0,0 0.0975,2.53634 2.48756,1.85348 2.39001,-0.68286 0.14632,-2.58511 0.14632,-2.58511"
         id="path15028"
         inkscape:connector-curvature="0" />
      <path
         style="fill:none;stroke:#000000;stroke-width:1.0909754;stroke-linecap:round;stroke-linejoin:round;stroke-miterlimit:4;stroke-opacity:1;stroke-dasharray:none;stroke-dashoffset:0"
         d="m 424.54221,392.74011 0.92673,0.0488 c 0,0 -0.68285,1.8047 1.46328,1.70715 2.14613,-0.0976 0.97551,-1.85348 0.63408,-2.43879"
         id="path15030"
         inkscape:connector-curvature="0" />
      <path
         style="fill:none;stroke:#000000;stroke-width:1.0909754;stroke-linecap:round;stroke-linejoin:round;stroke-miterlimit:4;stroke-opacity:1;stroke-dasharray:none;stroke-dashoffset:0"
         d="m 427.22487,394.93502 c 0,0 3.51185,15.36435 4.58492,15.51068"
         id="path15032"
         inkscape:connector-curvature="0" />
      <path
         style="fill:none;stroke:#000000;stroke-width:1.0909754;stroke-linecap:round;stroke-linejoin:round;stroke-miterlimit:4;stroke-opacity:1;stroke-dasharray:none;stroke-dashoffset:0"
         d="m 419.27443,396.05686 c 0,0 2.58511,17.02272 1.56082,17.65681"
         id="path15034"
         inkscape:connector-curvature="0" />
      <path
         style="fill:none;stroke:#000000;stroke-width:1.0909754;stroke-linecap:round;stroke-linejoin:round;stroke-miterlimit:4;stroke-opacity:1;stroke-dasharray:none;stroke-dashoffset:0"
         d="m 420.83525,415.6647 c 0,0 -0.63408,-2.92655 1.70715,-2.58512 2.34124,0.34143 1.56082,2.24369 1.56082,2.24369"
         id="path15036"
         inkscape:connector-curvature="0" />
      <path
         style="fill:none;stroke:#000000;stroke-width:1.0909754;stroke-linecap:round;stroke-linejoin:round;stroke-miterlimit:4;stroke-opacity:1;stroke-dasharray:none;stroke-dashoffset:0"
         d="m 424.20078,414.68918 1.85347,-0.92674 c 0,0 -1.70715,-2.1949 1.56083,-2.82899 3.26797,-0.63408 1.36571,2.29246 1.36571,2.29246 l 0.97552,-0.43898 c 0,0 -0.78041,-2.58511 1.90225,-2.48756 2.68267,0.0976 2.68267,1.65837 1.12184,3.8045"
         id="path15038"
         inkscape:connector-curvature="0" />
    </g>
    <g
       id="g3959"
       transform="translate(-211.33018,92.209612)">
      <path
         inkscape:connector-curvature="0"
         id="path3189"
         d="m 574.70644,431.51767 c 0.12458,-0.0269 2.59324,-5.05844 2.52354,-5.14337 -0.0124,-0.0151 -0.43629,0.0913 -0.94203,0.23633 -1.16619,0.33452 -1.43311,0.27674 -1.43311,-0.31023 0,-0.30699 0.0465,-0.41377 0.21168,-0.48632 0.24828,-0.10903 0.23082,0.0355 0.5417,-4.48172 0.17405,-2.52891 0.18955,-3.11851 0.0853,-3.24411 -0.11194,-0.13488 -0.16241,-0.11099 -0.41632,0.19704 -1.02667,1.24553 -3.76387,2.33451 -6.50925,2.58967 -0.64593,0.06 -0.67434,0.0532 -0.84185,-0.20246 -0.20939,-0.31958 -0.0838,-0.70423 0.27449,-0.84044 0.21108,-0.0803 0.28526,-0.41405 1.25387,-5.64247 1.01029,-5.45346 1.02644,-5.5636 0.86517,-5.90178 -0.0904,-0.18954 -0.16433,-0.42897 -0.16433,-0.53207 0,-0.25968 0.26402,-0.49839 0.55122,-0.49839 0.21234,0 0.24028,-0.0438 0.24028,-0.37668 0,-0.20717 0.15582,-3.15419 0.34628,-6.54894 0.40185,-7.16286 0.39194,-6.82668 0.20135,-6.82668 -0.0797,0 -0.19704,-0.10017 -0.26074,-0.2226 -0.0637,-0.12244 -0.1307,-0.23981 -0.14887,-0.26082 -0.0182,-0.021 -8.54851,-0.71748 -18.9563,-1.54769 l -18.92324,-1.50948 -0.21942,0.23677 c -0.12069,0.13022 -0.30139,0.23677 -0.40156,0.23677 -0.16373,0 -0.21095,0.23667 -0.46722,2.34176 -0.25126,2.06401 -0.27129,2.42213 -0.16887,3.01942 0.20946,1.22145 0.15612,1.46568 -0.34694,1.58857 -0.36296,0.0887 -0.58013,-0.22407 -0.71308,-1.02684 -0.22258,-1.34404 -0.40677,-2.88824 -0.40677,-3.41036 0,-0.66444 -0.0628,-0.82155 -0.3032,-0.75868 -0.10532,0.0275 -0.19149,0.0612 -0.19149,0.0748 0,0.0136 -1.53734,4.44943 -3.41632,9.85746 l -3.41633,9.83278 0.0644,0.62212 c 0.0717,0.69249 -0.0868,1.01035 -0.50363,1.01035 -0.46615,0 -0.59099,-0.36525 -0.89615,-2.62184 -0.41012,-3.0328 -0.24559,-6.34195 0.45703,-9.19235 0.10611,-0.43048 0.17455,-0.80106 0.15209,-0.82352 -0.0293,-0.0293 -1.898,1.21386 -2.70167,1.7973 -0.0113,0.008 -0.0929,2.09308 -0.18122,4.63302 l -0.16064,4.61807 0.60807,2.5508 c 0.33444,1.40294 0.63043,2.6286 0.65776,2.7237 0.0273,0.0951 0.15842,0.2002 0.29131,0.23355 0.44018,0.11048 0.45832,0.77731 0.0277,1.019 -0.35395,0.19866 -0.99826,0.006 -1.43309,-0.42909 l -0.31948,-0.31948 -0.0317,0.7589 -0.0317,0.75889 26.6068,5.5534 c 26.006,5.428 26.60988,5.54899 26.74343,5.35832 0.29834,-0.42594 0.9084,-0.10492 1.70061,0.89487 0.19629,0.24772 0.42022,0.43256 0.50249,0.41479 z"
         style="fill:#112b00;fill-opacity:1;fill-rule:evenodd;stroke:#112b00;stroke-width:2.5;stroke-linecap:round;stroke-linejoin:round;stroke-miterlimit:4;stroke-opacity:1;stroke-dasharray:none;stroke-dashoffset:0" />
      <rect
         transform="scale(-1,1)"
         style="fill:#112b00;fill-opacity:1;fill-rule:evenodd;stroke:#112b00;stroke-width:0.51315361;stroke-linecap:round;stroke-linejoin:round;stroke-miterlimit:4;stroke-opacity:1;stroke-dasharray:none;stroke-dashoffset:0"
         id="rect3074"
         width="0.27792355"
         height="1.0427204"
         x="-530.25232"
         y="390.87402"
         ry="0.13896178" />
      <path
         style="fill:#112b00;stroke:#000000;stroke-width:1.0267179;stroke-linecap:round;stroke-linejoin:round;stroke-miterlimit:4;stroke-opacity:1;stroke-dasharray:none;stroke-dashoffset:0"
         d="m 572.4566,380.34208 c 0,0 1.61638,10.10795 -0.0714,16.08027 0,0 5.46307,4.75622 -1.48299,11.7672"
         id="path3082"
         inkscape:connector-curvature="0"
         sodipodi:nodetypes="ccc" />
      <path
         style="fill:#112b00;stroke:#000000;stroke-width:1.0267179;stroke-linecap:round;stroke-linejoin:round;stroke-miterlimit:4;stroke-opacity:1;stroke-dasharray:none;stroke-dashoffset:0"
         d="m 532.59137,389.86579 c 0,0 0.64917,-28.56324 26.22625,-24.92792 0,0 18.30644,3.76515 12.85346,28.04391"
         id="path3084"
         inkscape:connector-curvature="0" />
      <path
         style="fill:#112b00;stroke:#000000;stroke-width:1.0267179;stroke-linecap:round;stroke-linejoin:round;stroke-miterlimit:4;stroke-opacity:1;stroke-dasharray:none;stroke-dashoffset:0"
         d="m 574.60318,432.11641 c 0,0 17.06473,-2.72171 4.94637,-10.4334"
         id="path3094"
         inkscape:connector-curvature="0"
         sodipodi:nodetypes="cc" />
      <path
         style="fill:#112b00;stroke:#000000;stroke-width:1.0267179;stroke-linecap:round;stroke-linejoin:round;stroke-miterlimit:4;stroke-opacity:1;stroke-dasharray:none;stroke-dashoffset:0"
         d="m 575.3064,426.28391 c 0,0 9.44534,-1.52553 0.6167,-8.79617"
         id="path3096"
         inkscape:connector-curvature="0"
         sodipodi:nodetypes="cc" />
      <path
         style="fill:#112b00;stroke:#000000;stroke-width:1.0267179;stroke-linecap:round;stroke-linejoin:round;stroke-miterlimit:4;stroke-opacity:1;stroke-dasharray:none;stroke-dashoffset:0"
         d="m 570.69733,407.78273 c 0,0 12.65871,10.84104 -2.33699,12.59379"
         id="path3098"
         inkscape:connector-curvature="0"
         sodipodi:nodetypes="cc" />
      <path
         style="fill:#112b00;stroke:#000000;stroke-width:1.0267179;stroke-linecap:round;stroke-linejoin:round;stroke-miterlimit:4;stroke-opacity:1;stroke-dasharray:none;stroke-dashoffset:0"
         d="m 572.90449,430.5684 c 0,0 10.51646,9.0883 -18.04677,3.9599 0,0 -12.13938,4.67399 -23.88926,0 0,0 -20.05918,3.83007 -13.30787,-8.3093 0,0 -5.77756,-3.70024 -4.47923,-8.11456"
         id="path3100"
         inkscape:connector-curvature="0" />
      <path
         style="fill:none;stroke:#000000;stroke-width:1.0267179;stroke-linecap:round;stroke-linejoin:round;stroke-miterlimit:4;stroke-opacity:1;stroke-dasharray:none;stroke-dashoffset:0"
         d="m 533.56512,432.06148 c 0,0 -1.49308,-12.07446 -14.6062,-5.64773"
         id="path3102"
         inkscape:connector-curvature="0" />
      <path
         style="fill:#112b00;stroke:#000000;stroke-width:1.0267179;stroke-linecap:round;stroke-linejoin:round;stroke-miterlimit:4;stroke-opacity:1;stroke-dasharray:none;stroke-dashoffset:0"
         d="m 518.95892,423.62234 c 0,0 -16.48878,-8.6988 0.71408,-21.55226"
         id="path3104"
         inkscape:connector-curvature="0" />
      <path
         style="fill:#112b00;stroke:#000000;stroke-width:1.0267179;stroke-linecap:round;stroke-linejoin:round;stroke-miterlimit:4;stroke-opacity:1;stroke-dasharray:none;stroke-dashoffset:0"
         d="m 518.63434,409.08105 c 0,0 -0.3895,9.28306 2.14224,8.95848"
         id="path3106"
         inkscape:connector-curvature="0" />
      <path
         style="fill:#112b00;stroke:#000000;stroke-width:1.0267179;stroke-linecap:round;stroke-linejoin:round;stroke-miterlimit:4;stroke-opacity:1;stroke-dasharray:none;stroke-dashoffset:0"
         d="m 523.15621,399.69506 -3.77438,2.59272"
         id="path3108"
         inkscape:connector-curvature="0"
         sodipodi:nodetypes="cc" />
      <path
         style="fill:#112b00;stroke:#000000;stroke-width:1.0267179;stroke-linecap:round;stroke-linejoin:round;stroke-miterlimit:4;stroke-opacity:1;stroke-dasharray:none;stroke-dashoffset:0"
         d="m 531.01763,389.15171 c 0,0 -11.53938,8.04964 -8.29356,23.88925"
         id="path3110"
         inkscape:connector-curvature="0"
         sodipodi:nodetypes="cc" />
      <path
         style="fill:#112b00;stroke:#000000;stroke-width:1.0267179;stroke-linecap:round;stroke-linejoin:round;stroke-miterlimit:4;stroke-opacity:1;stroke-dasharray:none;stroke-dashoffset:0"
         d="m 531.55271,396.87676 c 0,0 -2.04717,-9.94009 1.3934,-11.10859"
         id="path3112"
         inkscape:connector-curvature="0"
         sodipodi:nodetypes="cc" />
    </g>
    <g
       id="g4233"
       transform="matrix(-1,0,0,1,984.37126,86.189824)">
      <rect
         ry="0.18540928"
         y="415.89819"
         x="528.62225"
         height="3.3638699"
         width="6.7277398"
         id="rect4159"
         style="fill:#112b00;fill-opacity:1;fill-rule:evenodd;stroke:#112b00;stroke-width:2.5;stroke-linecap:round;stroke-linejoin:round;stroke-miterlimit:4;stroke-opacity:1;stroke-dasharray:none;stroke-dashoffset:0" />
      <path
         inkscape:connector-curvature="0"
         id="path4157"
         d="m 523.27627,439.13641 c -0.0765,-0.17685 -0.65643,-1.40803 -1.28882,-2.73595 -0.6324,-1.32793 -1.13703,-2.42718 -1.12142,-2.4428 0.0156,-0.0156 0.29446,0.061 0.61967,0.17014 0.89952,0.30201 1.58849,0.3527 1.82948,0.13461 0.10802,-0.0977 0.19639,-0.27524 0.19639,-0.39441 0,-0.22664 -0.27876,-0.54415 -0.47774,-0.54415 -0.0637,0 -0.11846,-0.10018 -0.12161,-0.22261 -0.003,-0.12244 -0.13055,-1.9367 -0.28311,-4.0317 -0.22903,-3.14528 -0.25457,-3.82773 -0.14657,-3.91608 0.10033,-0.0821 0.2758,0.0338 0.75306,0.49735 1.03526,1.00546 2.58305,1.70422 4.82211,2.17697 1.70039,0.35901 2.40084,0.41477 2.60802,0.20759 0.26529,-0.26529 0.21407,-0.71232 -0.10487,-0.91528 -0.34165,-0.21741 -0.41707,-0.32254 -0.41897,-0.58405 -0.003,-0.35606 0.84192,-1.9494 1.23621,-2.33237 l 0.37478,-0.36403 -0.089,-0.62525 c -0.082,-0.5764 -0.10946,-0.62762 -0.35148,-0.65563 -0.21987,-0.0255 -0.36054,0.086 -0.8657,0.68618 -0.33175,0.39412 -0.60318,0.75283 -0.60318,0.79715 0,0.0443 -0.0397,0.0806 -0.0881,0.0806 -0.10103,0 -0.20102,-0.67584 -0.10589,-0.71573 0.0345,-0.0145 0.41388,-0.4214 0.84309,-0.9043 l 0.78037,-0.878 0.45372,0.49345 c 0.60379,0.65664 0.81302,0.7645 1.16104,0.59853 0.424,-0.20221 0.41935,-0.65964 -0.0115,-1.13659 l -0.34274,-0.37937 -2.11854,-13.40433 c -1.1652,-7.37238 -2.11053,-13.41671 -2.10073,-13.43183 0.01,-0.0151 8.90614,-0.73653 19.76964,-1.60314 l 19.75182,-1.57565 0.24276,0.24276 c 0.13351,0.13351 0.32589,0.24275 0.42751,0.24275 0.16731,0 0.21408,0.23591 0.49525,2.49817 0.31029,2.49656 0.31039,2.49882 0.14706,3.50827 -0.15689,0.96971 -0.15612,1.01818 0.0193,1.21198 0.21704,0.23983 0.66936,0.26461 0.85031,0.0466 0.0709,-0.0854 0.20488,-0.54176 0.29777,-1.01411 0.0929,-0.47235 0.17391,-0.75978 0.18004,-0.63875 0.007,0.13309 0.1187,0.27572 0.28323,0.36085 0.24947,0.12907 0.46827,0.70484 2.63328,6.92959 3.01311,8.66315 2.84504,8.21416 3.08818,8.24952 0.17135,0.0249 0.31702,0.43262 1.03754,2.90384 0.83465,2.86267 0.83781,2.87775 0.74425,3.55469 -0.0831,0.60141 -0.073,0.70297 0.0876,0.88051 0.0999,0.11037 0.28602,0.20068 0.41363,0.20068 0.42313,0 0.58219,-0.29257 0.75708,-1.39252 0.36807,-2.31507 0.41019,-2.86899 0.40566,-5.33522 -0.005,-2.51117 -0.10987,-3.74084 -0.49061,-5.73147 -0.0773,-0.40433 -0.1216,-0.75415 -0.0984,-0.77738 0.0232,-0.0232 0.61253,0.3533 1.30957,0.83672 l 1.26733,0.87895 0.0595,0.49205 c 0.0327,0.27062 0.11832,2.5069 0.19023,4.96951 l 0.13075,4.47747 -0.67501,2.84423 c -0.67095,2.82712 -0.67686,2.84512 -0.98173,2.9923 -0.21808,0.10528 -0.31601,0.22923 -0.33887,0.4289 -0.0993,0.86761 1.18456,0.88568 1.93824,0.0273 l 0.32,-0.36446 0,0.87396 0,0.87396 -28.26772,5.89857 c -27.34555,5.70613 -28.27206,5.89237 -28.40063,5.70881 -0.32288,-0.46097 -1.08545,-0.0552 -1.85309,0.98598 -0.36193,0.49091 -0.59328,0.51635 -0.77946,0.0857 z"
         style="fill:#112b00;fill-opacity:1;fill-rule:evenodd;stroke:#112b00;stroke-width:2.5;stroke-linecap:round;stroke-linejoin:round;stroke-miterlimit:4;stroke-opacity:1;stroke-dasharray:none;stroke-dashoffset:0" />
      <path
         style="fill:#112b00;fill-opacity:1;fill-rule:evenodd;stroke:#112b00;stroke-width:0.65458518;stroke-linecap:round;stroke-linejoin:round;stroke-miterlimit:4;stroke-opacity:1;stroke-dasharray:none;stroke-dashoffset:0"
         d="m 576.09643,411.12697 c -0.26189,-0.75815 -1.43095,-4.12209 -2.59792,-7.47542 l -2.12177,-6.09696 -0.007,-0.67484 -0.007,-0.67484 -0.13685,-0.11777 c -0.16168,-0.13913 -0.37509,-0.1521 -0.55569,-0.0338 l -0.12819,0.084 0.03,-0.19374 c 0.0695,-0.44928 0.14456,-1.30785 0.19758,-2.26038 l 0.0566,-1.01763 2.89336,9.89971 c 1.59134,5.44485 2.88426,9.90881 2.87315,9.91992 -0.0111,0.0111 -0.23446,-0.60011 -0.49634,-1.35827 l 0,0 z"
         id="path3983"
         inkscape:connector-curvature="0" />
      <rect
         ry="0.14765874"
         y="396.25116"
         x="570.78796"
         height="1.1079794"
         width="0.29531747"
         id="rect3995"
         style="fill:#112b00;fill-opacity:1;fill-rule:evenodd;stroke:#112b00;stroke-width:0.54526949;stroke-linecap:round;stroke-linejoin:round;stroke-miterlimit:4;stroke-opacity:1;stroke-dasharray:none;stroke-dashoffset:0" />
      <path
         inkscape:connector-curvature="0"
         id="path3997"
         d="m 529.90563,425.39406 c -0.0518,-0.28236 -0.10054,-0.53711 -0.1084,-0.56612 -0.0179,-0.0662 0.22784,-0.50025 0.48713,-0.86038 0.22359,-0.31054 0.98067,-1.18579 1.00481,-1.16165 0.0179,0.0179 0.15509,0.92748 0.14095,0.93428 -0.005,0.002 -0.0653,0.0299 -0.1339,0.061 -0.28553,0.12952 -0.94325,1.14165 -1.20321,1.85155 l -0.0933,0.25472 -0.0941,-0.51339 z"
         style="fill:#112b00;fill-opacity:1;fill-rule:evenodd;stroke:#112b00;stroke-width:0.54526949;stroke-linecap:round;stroke-linejoin:round;stroke-miterlimit:4;stroke-opacity:1;stroke-dasharray:none;stroke-dashoffset:0" />
      <path
         inkscape:connector-curvature="0"
         id="path3999"
         d="m 529.47235,423.10877 c 0,-0.0242 -0.24093,-1.34264 -0.5354,-2.9299 -0.29447,-1.58725 -0.54377,-2.94023 -0.554,-3.00663 -0.0126,-0.0817 0.0745,0.0575 0.2699,0.43113 0.43566,0.83332 0.82284,1.48924 1.31315,2.22458 0.26089,0.39126 0.9098,1.26818 1.05338,1.42349 l 0.0884,0.0956 -0.34597,0.35272 c -0.38301,0.39049 -0.84912,0.90655 -1.08177,1.19772 -0.21172,0.26496 -0.2077,0.26088 -0.2077,0.21125 z"
         style="fill:#112b00;fill-opacity:1;fill-rule:evenodd;stroke:#112b00;stroke-width:0.54526949;stroke-linecap:round;stroke-linejoin:round;stroke-miterlimit:4;stroke-opacity:1;stroke-dasharray:none;stroke-dashoffset:0" />
      <path
         sodipodi:nodetypes="ccc"
         inkscape:connector-curvature="0"
         id="path4003"
         d="m 526.13746,380.96293 c 0,0 -1.71755,10.74056 0.0759,17.08665 0,0 -0.95388,16.72037 6.4269,24.17013"
         style="fill:#112b00;stroke:#000000;stroke-width:1.0909754;stroke-linecap:round;stroke-linejoin:round;stroke-miterlimit:4;stroke-opacity:1;stroke-dasharray:none;stroke-dashoffset:0" />
      <path
         sodipodi:nodetypes="ccc"
         inkscape:connector-curvature="0"
         id="path4005"
         d="m 568.49766,391.08268 c 0,0 -0.68979,-30.35088 -27.86762,-26.48804 0,0 -19.45215,4.0008 -13.65789,29.79904"
         style="fill:#112b00;stroke:#000000;stroke-width:1.0909754;stroke-linecap:round;stroke-linejoin:round;stroke-miterlimit:4;stroke-opacity:1;stroke-dasharray:none;stroke-dashoffset:0" />
      <path
         sodipodi:nodetypes="cc"
         inkscape:connector-curvature="0"
         id="path4015"
         d="m 523.66143,440.07473 c 0,0 -18.13273,-2.89206 -5.25594,-11.08638"
         style="fill:#112b00;stroke:#000000;stroke-width:1.0909754;stroke-linecap:round;stroke-linejoin:round;stroke-miterlimit:4;stroke-opacity:1;stroke-dasharray:none;stroke-dashoffset:0" />
      <path
         sodipodi:nodetypes="cc"
         inkscape:connector-curvature="0"
         id="path4017"
         d="m 522.9142,433.8772 c 0,0 -10.03648,-1.62101 -0.6553,-9.34669"
         style="fill:#112b00;stroke:#000000;stroke-width:1.0909754;stroke-linecap:round;stroke-linejoin:round;stroke-miterlimit:4;stroke-opacity:1;stroke-dasharray:none;stroke-dashoffset:0" />
      <path
         sodipodi:nodetypes="cc"
         inkscape:connector-curvature="0"
         id="path4019"
         d="m 527.81173,414.21811 c 0,0 -13.45096,11.51954 2.48325,13.38198"
         style="fill:#112b00;stroke:#000000;stroke-width:1.0909754;stroke-linecap:round;stroke-linejoin:round;stroke-miterlimit:4;stroke-opacity:1;stroke-dasharray:none;stroke-dashoffset:0" />
      <path
         inkscape:connector-curvature="0"
         id="path4021"
         d="m 525.46644,438.42983 c 0,0 -11.17464,9.6571 19.17623,4.20774 0,0 12.89912,4.96651 25.38437,0 0,0 21.31459,4.06978 14.14075,-8.82935 0,0 6.13915,-3.93181 4.75957,-8.62241"
         style="fill:#112b00;stroke:#000000;stroke-width:1.0909754;stroke-linecap:round;stroke-linejoin:round;stroke-miterlimit:4;stroke-opacity:1;stroke-dasharray:none;stroke-dashoffset:0" />
      <path
         inkscape:connector-curvature="0"
         id="path4023"
         d="m 567.26787,440.01636 c 0,0 1.58652,-12.83015 15.52034,-6.0012"
         style="fill:none;stroke:#000000;stroke-width:1.0909754;stroke-linecap:round;stroke-linejoin:round;stroke-miterlimit:4;stroke-opacity:1;stroke-dasharray:none;stroke-dashoffset:0" />
      <path
         inkscape:connector-curvature="0"
         id="path4025"
         d="m 582.78821,431.04905 c 0,0 17.52073,-9.24322 -0.75878,-22.90111"
         style="fill:#112b00;stroke:#000000;stroke-width:1.0909754;stroke-linecap:round;stroke-linejoin:round;stroke-miterlimit:4;stroke-opacity:1;stroke-dasharray:none;stroke-dashoffset:0" />
      <path
         inkscape:connector-curvature="0"
         id="path4027"
         d="m 583.1331,415.5977 c 0,0 0.41388,9.86403 -2.27631,9.51914"
         style="fill:#112b00;stroke:#000000;stroke-width:1.0909754;stroke-linecap:round;stroke-linejoin:round;stroke-miterlimit:4;stroke-opacity:1;stroke-dasharray:none;stroke-dashoffset:0" />
      <path
         sodipodi:nodetypes="cc"
         inkscape:connector-curvature="0"
         id="path4029"
         d="m 578.32822,405.62428 4.0106,2.75498"
         style="fill:#112b00;stroke:#000000;stroke-width:1.0909754;stroke-linecap:round;stroke-linejoin:round;stroke-miterlimit:4;stroke-opacity:1;stroke-dasharray:none;stroke-dashoffset:0" />
      <path
         sodipodi:nodetypes="cc"
         inkscape:connector-curvature="0"
         id="path4031"
         d="m 570.1699,390.3239 c 0,0 12.06647,12.65059 8.61751,29.48153"
         style="fill:#112b00;stroke:#000000;stroke-width:1.0909754;stroke-linecap:round;stroke-linejoin:round;stroke-miterlimit:4;stroke-opacity:1;stroke-dasharray:none;stroke-dashoffset:0" />
      <path
         sodipodi:nodetypes="cc"
         inkscape:connector-curvature="0"
         id="path4033"
         d="m 569.60133,398.53244 c 0,0 2.1753,-10.5622 -1.4806,-11.80383"
         style="fill:#112b00;stroke:#000000;stroke-width:1.0909754;stroke-linecap:round;stroke-linejoin:round;stroke-miterlimit:4;stroke-opacity:1;stroke-dasharray:none;stroke-dashoffset:0" />
    </g>
    <path
       inkscape:connector-curvature="0"
       id="path4716"
       d="m 304.43355,438.50327 c -0.64268,-1.36275 -1.18564,-2.52194 -1.20658,-2.57596 -0.0209,-0.054 0.29485,0.0116 0.70177,0.14585 0.91663,0.30239 1.55253,0.31723 1.65941,0.0387 0.14322,-0.37322 0.0822,-0.66938 -0.17499,-0.84992 -0.22997,-0.16139 -0.27872,-0.52378 -0.51908,-3.85872 -0.14589,-2.02433 -0.23085,-3.73628 -0.1888,-3.80433 0.0421,-0.0681 0.35616,0.13788 0.69799,0.45763 1.10649,1.03499 3.00503,1.81926 5.32717,2.20062 1.0321,0.1695 1.14256,0.21919 1.70535,0.76718 0.33098,0.32227 0.93737,0.7447 1.34754,0.93874 1.53297,0.72521 4.41078,1.23818 6.94634,1.23818 1.11481,0 1.16936,-0.0137 1.38803,-0.34738 0.35003,-0.53422 0.27699,-1.69633 -0.1642,-2.61222 -0.72029,-1.49529 -3.1958,-3.612 -6.22449,-5.32229 -0.85584,-0.48329 -1.33825,-0.86184 -1.80293,-1.41475 -1.38763,-1.65115 -1.15419,-0.6637 -2.69268,-11.3901 -0.7588,-5.29031 -1.37226,-9.62789 -1.36325,-9.63907 0.009,-0.0112 3.31521,-0.28342 7.34713,-0.60498 l 7.33075,-0.58465 0.37181,0.31285 c 0.20449,0.17208 0.41717,0.31286 0.47262,0.31286 0.10128,0 0.51603,2.82189 1.1068,7.53031 0.60556,4.82634 0.71573,7.07505 0.44514,9.08568 -0.2156,1.60201 0.11107,2.44552 0.80356,2.07492 0.13764,-0.0737 0.25491,-0.1757 0.26059,-0.22675 0.006,-0.051 0.0203,-0.44902 0.0325,-0.88441 0.0294,-1.05158 0.21609,-1.274 0.98134,-1.16911 0.83092,0.11389 1.05319,0.3646 1.05319,1.18795 0,0.50036 0.0543,0.70089 0.20537,0.75888 0.39312,0.15085 0.57899,0.0763 0.82725,-0.33197 0.14597,-0.24002 0.56342,-0.57732 1.0043,-0.81145 0.85422,-0.45365 0.97146,-0.72685 0.62513,-1.45669 -0.19364,-0.40807 -0.19529,-0.48255 -0.0167,-0.75508 0.33085,-0.50494 2.12571,-0.95898 2.35085,-0.59469 0.0428,0.0693 -0.0466,0.41515 -0.1986,0.76861 -0.30283,0.70394 -0.298,1.02106 0.0186,1.22041 0.26709,0.16817 0.73236,0.0479 1.29368,-0.33446 0.42153,-0.28713 0.44448,-0.34091 0.40719,-0.95439 -0.0566,-0.93081 0.22871,-1.25 1.15438,-1.29158 0.38496,-0.0173 0.89045,0.0481 1.12331,0.14545 0.35886,0.14994 0.4234,0.2434 0.4234,0.61313 0,0.26824 -0.17499,0.72681 -0.45442,1.19085 -0.24993,0.41505 -0.45441,0.83041 -0.45441,0.92303 0,0.68599 0.72549,0.81177 1.16028,0.20117 0.49908,-0.70089 0.91448,-1.75441 0.91578,-2.32251 0.002,-1.06779 -0.51611,-1.59509 -1.86529,-1.89683 l -0.63313,-0.14159 -0.36479,-0.95008 c -0.20064,-0.52255 -0.5513,-1.5742 -0.77925,-2.337 -0.69162,-2.31437 -2.70938,-10.46927 -2.61327,-10.56169 0.0495,-0.0476 3.00408,-0.31756 6.56581,-0.60001 6.16244,-0.48868 6.48686,-0.50256 6.70263,-0.28679 0.1247,0.12471 0.30208,0.25185 0.39416,0.28255 0.11273,0.0376 0.25985,0.79569 0.45037,2.32076 0.2348,1.8796 0.25971,2.42641 0.14643,3.21391 -0.14155,0.98392 -0.0587,1.3488 0.32333,1.42425 0.6019,0.11888 0.89156,-0.94549 1.17492,-4.31737 0.0839,-0.99788 0.18022,-1.72819 0.21413,-1.62291 0.0339,0.10528 1.63771,4.71934 3.56399,10.25347 3.23735,9.30081 3.50075,10.12317 3.48167,10.86995 -0.0199,0.7766 -0.007,0.8113 0.33016,0.89594 0.55939,0.1404 0.74947,-0.23781 1.02898,-2.04742 0.46649,-3.02004 0.26121,-7.48141 -0.45871,-9.96954 -0.0709,-0.2452 -0.10566,-0.46915 -0.0771,-0.49767 0.0285,-0.0285 0.63288,0.34737 1.34301,0.83532 l 1.29115,0.88717 0.0801,1.23341 c 0.044,0.67838 0.11883,2.78167 0.16621,4.67398 l 0.0861,3.44057 -0.63198,2.68733 c -0.57235,2.43378 -0.65983,2.69433 -0.92719,2.76143 -0.22348,0.0561 -0.29521,0.16702 -0.29521,0.45655 0,0.73446 0.91334,0.82861 1.69094,0.1743 l 0.38639,-0.32512 0,0.71687 c 0,0.57159 -0.046,0.72995 -0.22721,0.78142 -0.12496,0.0355 -12.05466,2.52966 -26.51044,5.54257 -20.86309,4.34833 -26.33135,5.44795 -26.5166,5.33226 -0.48689,-0.30407 -0.83452,-0.16917 -1.46459,0.56833 -0.33553,0.39275 -0.67857,0.71178 -0.76231,0.70897 -0.0837,-0.003 -0.67807,-1.12009 -1.32074,-2.48284 z m 41.2682,-7.47311 c 0.3673,-0.19504 1.14109,-0.82337 1.71954,-1.39629 0.83307,-0.82512 1.10974,-1.19791 1.33079,-1.7931 0.15348,-0.41327 0.27874,-0.90988 0.27834,-1.10358 -0.002,-1.02633 -0.63375,-2.00289 -1.75379,-2.71147 -0.50525,-0.31965 -0.57489,-0.42424 -0.65103,-0.97786 -0.17526,-1.27431 -1.02818,-1.98608 -2.24403,-1.87267 -1.46651,0.1368 -2.26319,0.98143 -2.25934,2.39532 10e-4,0.40545 0.005,1.77891 0.009,3.05213 0.007,2.47077 0.16421,3.40395 0.69945,4.15563 0.57763,0.81121 1.64216,0.9046 2.87136,0.25189 l 10e-6,0 z"
       style="fill:#112b00;fill-opacity:1;fill-rule:evenodd;stroke:#112b00;stroke-width:2.5;stroke-linecap:round;stroke-linejoin:round;stroke-miterlimit:4;stroke-opacity:1;stroke-dasharray:none;stroke-dashoffset:0" />
    <path
       inkscape:connector-curvature="0"
       id="path4718"
       d="m 343.86831,430.19696 c -0.4985,-0.56855 -0.67303,-1.5918 -0.57543,-3.37386 0.0941,-1.71889 0.0931,-1.83249 -0.0218,-2.53576 -0.19287,-1.17966 0.15332,-1.8359 1.03855,-1.96865 0.79758,-0.11961 1.15521,0.24901 1.19163,1.22821 0.0125,0.33761 0.0267,0.66478 0.0315,0.72705 0.005,0.0623 0.22557,0.22274 0.49066,0.35662 1.66421,0.84046 2.16525,1.77125 1.58272,2.94023 -0.30258,0.6072 -1.08347,1.46107 -1.86822,2.04283 -0.98223,0.72816 -1.57927,0.91444 -1.86959,0.58333 z"
       style="fill:#225500;fill-opacity:1;fill-rule:evenodd;stroke:#225500;stroke-width:0.43471238;stroke-linecap:round;stroke-linejoin:round;stroke-miterlimit:4;stroke-opacity:1;stroke-dasharray:none;stroke-dashoffset:0" />
    <rect
       ry="0.13896178"
       y="400.37201"
       x="350.19424"
       height="1.0427204"
       width="0.27792355"
       id="rect4720"
       style="fill:#112b00;fill-opacity:1;fill-rule:evenodd;stroke:#112b00;stroke-width:0.51315361;stroke-linecap:round;stroke-linejoin:round;stroke-miterlimit:4;stroke-opacity:1;stroke-dasharray:none;stroke-dashoffset:0" />
    <path
       inkscape:connector-curvature="0"
       id="path4722"
       d="m 311.71982,427.79841 c -0.0487,-0.26573 -0.0946,-0.50548 -0.10201,-0.53277 -0.0169,-0.0623 0.21441,-0.47079 0.45843,-0.80971 0.21043,-0.29225 0.92291,-1.11595 0.94563,-1.09323 0.0168,0.0168 0.14595,0.87286 0.13265,0.87925 -0.005,0.002 -0.0614,0.0281 -0.12601,0.0574 -0.26871,0.12189 -0.88769,1.07441 -1.13234,1.7425 l -0.0878,0.23971 -0.0886,-0.48315 z"
       style="fill:#112b00;fill-opacity:1;fill-rule:evenodd;stroke:#112b00;stroke-width:0.51315361;stroke-linecap:round;stroke-linejoin:round;stroke-miterlimit:4;stroke-opacity:1;stroke-dasharray:none;stroke-dashoffset:0" />
    <path
       inkscape:connector-curvature="0"
       id="path4724"
       d="m 311.31206,425.64772 c 0,-0.0228 -0.22674,-1.26356 -0.50386,-2.75733 -0.27713,-1.49376 -0.51174,-2.76705 -0.52137,-2.82954 -0.0118,-0.0769 0.0702,0.0541 0.254,0.40573 0.41,0.78424 0.77438,1.40153 1.23581,2.09356 0.24552,0.36822 0.85621,1.19348 0.99133,1.33965 l 0.0832,0.09 -0.3256,0.33195 c -0.36045,0.36749 -0.7991,0.85316 -1.01805,1.12718 -0.19925,0.24935 -0.19547,0.24551 -0.19547,0.1988 z"
       style="fill:#112b00;fill-opacity:1;fill-rule:evenodd;stroke:#112b00;stroke-width:0.51315361;stroke-linecap:round;stroke-linejoin:round;stroke-miterlimit:4;stroke-opacity:1;stroke-dasharray:none;stroke-dashoffset:0" />
    <path
       sodipodi:nodetypes="ccccc"
       inkscape:connector-curvature="0"
       id="path4726"
       d="m 307.98998,389.84007 c 0,0 -1.61638,10.10795 0.0714,16.08027 0,0 -0.71408,11.87971 6.23198,18.89069 0,0 8.82864,4.28448 7.33556,7.85488 0,0 -13.17804,0.25967 -8.37422,-5.90739"
       style="fill:#112b00;stroke:#000000;stroke-width:1.0267179;stroke-linecap:round;stroke-linejoin:round;stroke-miterlimit:4;stroke-opacity:1;stroke-dasharray:none;stroke-dashoffset:0" />
    <path
       inkscape:connector-curvature="0"
       id="path4728"
       d="m 347.85521,399.36378 c 0,0 -0.64917,-28.56324 -26.22625,-24.92792 0,0 -18.30644,3.76515 -12.85346,28.04391"
       style="fill:#112b00;stroke:#000000;stroke-width:1.0267179;stroke-linecap:round;stroke-linejoin:round;stroke-miterlimit:4;stroke-opacity:1;stroke-dasharray:none;stroke-dashoffset:0" />
    <path
       inkscape:connector-curvature="0"
       id="path4730"
       d="m 330.9212,418.0893 c -0.38526,-0.57215 -1.19616,-0.93026 -2.10646,-0.93026 l -0.50376,0 -0.0454,-0.95752 c -0.0933,-1.9665 -0.3708,-4.79495 -0.8201,-8.35799 -0.2138,-1.69544 -0.75629,-5.62585 -0.8081,-5.85477 -0.0272,-0.11999 0.031,-0.17541 0.37381,-0.3559 0.22329,-0.11758 0.5692,-0.37518 0.76869,-0.57245 l 0.36272,-0.35866 0.25399,0.0766 c 1.00033,0.30186 2.6045,-0.30425 2.793,-1.05529 0.039,-0.15529 0.0525,-0.1439 0.21394,0.17971 0.1347,0.27004 0.24828,0.391 0.52007,0.55384 0.19125,0.11459 0.48246,0.22631 0.64714,0.24828 0.16467,0.022 0.33041,0.0493 0.36832,0.0608 0.0379,0.0115 0.1361,0.32334 0.21822,0.69301 0.27133,1.22143 1.56078,6.35728 1.99345,7.93989 0.51781,1.894 1.18025,4.05739 1.45138,4.73992 0.11037,0.27785 0.1922,0.51216 0.18185,0.52069 -0.0103,0.009 -0.13471,0.0696 -0.27634,0.13569 -0.14163,0.0661 -0.36073,0.22338 -0.48688,0.34953 l -0.22936,0.22936 -0.28965,-0.14606 c -0.54131,-0.27297 -1.89194,-0.15553 -2.76525,0.24045 -1.03121,0.46758 -1.44474,1.28277 -1.17609,2.31844 l 0.086,0.33135 -0.26591,0.12918 -0.2659,0.12919 -0.19331,-0.28709 0,0 z"
       style="fill:#504416;fill-opacity:1;fill-rule:evenodd;stroke:#504416;stroke-width:0.27023214;stroke-linecap:round;stroke-linejoin:round;stroke-miterlimit:4;stroke-opacity:1;stroke-dasharray:none;stroke-dashoffset:0" />
    <path
       inkscape:connector-curvature="0"
       id="path4732"
       d="m 330.9308,385.17146 c -0.0209,-0.31241 -0.0557,-1.06463 -0.0774,-1.6716 l -0.0393,-1.10358 0.25738,-0.24896 0.25739,-0.24896 0.32172,0.23114 c 0.46109,0.33126 1.09258,0.61075 1.64755,0.72918 0.56866,0.12136 1.62946,0.0863 2.21779,-0.0732 0.37154,-0.10076 0.37603,-0.10028 0.74654,0.0793 l 0.37276,0.18068 0.0825,0.99945 c 0.0454,0.5497 0.07,1.01195 0.0547,1.02722 -0.0153,0.0153 -0.11539,-0.0175 -0.22249,-0.0729 -0.10711,-0.0554 -0.42386,-0.16642 -0.70389,-0.24674 -0.73343,-0.21037 -2.16615,-0.21076 -2.89802,-8.2e-4 -0.57448,0.16481 -1.16766,0.4461 -1.61987,0.76812 -0.16968,0.12083 -0.31994,0.21969 -0.33392,0.21969 -0.014,0 -0.0426,-0.25561 -0.0635,-0.56802 z"
       style="fill:#677821;fill-opacity:1;fill-rule:evenodd;stroke:#677821;stroke-width:0.20534357;stroke-linecap:round;stroke-linejoin:round;stroke-miterlimit:4;stroke-opacity:1;stroke-dasharray:none;stroke-dashoffset:0" />
    <path
       inkscape:connector-curvature="0"
       id="path4734"
       d="m 315.73959,388.30203 c -0.039,-0.063 0.41039,-0.42819 0.99855,-0.81145 0.58815,-0.38326 1.70147,-1.31382 2.47405,-2.0679 l 1.40468,-1.37105 0.31824,0.54304 c 0.27468,0.46871 1.09197,2.65795 1.09197,2.92502 0,0.0512 -0.27752,-0.0105 -0.61671,-0.137 -1.71306,-0.6389 -3.60674,-0.36551 -5.04328,0.7281 -0.44191,0.33642 -0.52258,0.36101 -0.6275,0.19124 z"
       style="fill:#677821;fill-opacity:1;fill-rule:evenodd;stroke:#677821;stroke-width:0.51335895;stroke-linecap:round;stroke-linejoin:round;stroke-miterlimit:4;stroke-opacity:1;stroke-dasharray:none;stroke-dashoffset:0" />
    <path
       inkscape:connector-curvature="0"
       id="path4736"
       d="m 323.516,394.24265 c 0,0 -0.82625,7.48216 -4.728,5.82966 -3.90174,-1.6525 -3.58042,-3.53452 -3.44271,-6.15098 0.13771,-2.61647 -0.41312,-6.10508 -0.41312,-6.10508"
       style="fill:#677821;stroke:#000000;stroke-width:1.0267179;stroke-linecap:round;stroke-linejoin:round;stroke-miterlimit:4;stroke-opacity:1;stroke-dasharray:none;stroke-dashoffset:0" />
    <path
       sodipodi:nodetypes="cc"
       inkscape:connector-curvature="0"
       id="path4738"
       d="m 305.8434,441.6144 c 0,0 -17.06473,-2.72171 -4.94637,-10.4334"
       style="fill:#112b00;stroke:#000000;stroke-width:1.0267179;stroke-linecap:round;stroke-linejoin:round;stroke-miterlimit:4;stroke-opacity:1;stroke-dasharray:none;stroke-dashoffset:0" />
    <path
       sodipodi:nodetypes="cc"
       inkscape:connector-curvature="0"
       id="path4740"
       d="m 305.14018,435.7819 c 0,0 -9.44534,-1.52553 -0.6167,-8.79617"
       style="fill:#112b00;stroke:#000000;stroke-width:1.0267179;stroke-linecap:round;stroke-linejoin:round;stroke-miterlimit:4;stroke-opacity:1;stroke-dasharray:none;stroke-dashoffset:0" />
    <path
       sodipodi:nodetypes="cc"
       inkscape:connector-curvature="0"
       id="path4742"
       d="m 309.74925,417.28072 c 0,0 -12.65871,10.84104 2.33699,12.59379"
       style="fill:#112b00;stroke:#000000;stroke-width:1.0267179;stroke-linecap:round;stroke-linejoin:round;stroke-miterlimit:4;stroke-opacity:1;stroke-dasharray:none;stroke-dashoffset:0" />
    <path
       inkscape:connector-curvature="0"
       id="path4744"
       d="m 307.54209,440.06639 c 0,0 -10.51646,9.0883 18.04677,3.9599 0,0 12.13938,4.67399 23.88926,0 0,0 20.05918,3.83007 13.30787,-8.3093 0,0 5.77756,-3.70024 4.47923,-8.11456"
       style="fill:#112b00;stroke:#000000;stroke-width:1.0267179;stroke-linecap:round;stroke-linejoin:round;stroke-miterlimit:4;stroke-opacity:1;stroke-dasharray:none;stroke-dashoffset:0" />
    <path
       inkscape:connector-curvature="0"
       id="path4746"
       d="m 346.88146,441.55947 c 0,0 1.49308,-12.07446 14.6062,-5.64773"
       style="fill:none;stroke:#000000;stroke-width:1.0267179;stroke-linecap:round;stroke-linejoin:round;stroke-miterlimit:4;stroke-opacity:1;stroke-dasharray:none;stroke-dashoffset:0" />
    <path
       inkscape:connector-curvature="0"
       id="path4748"
       d="m 361.48766,433.12033 c 0,0 16.48878,-8.6988 -0.71408,-21.55226"
       style="fill:#112b00;stroke:#000000;stroke-width:1.0267179;stroke-linecap:round;stroke-linejoin:round;stroke-miterlimit:4;stroke-opacity:1;stroke-dasharray:none;stroke-dashoffset:0" />
    <path
       inkscape:connector-curvature="0"
       id="path4750"
       d="m 361.81224,418.57904 c 0,0 0.3895,9.28306 -2.14224,8.95848"
       style="fill:#112b00;stroke:#000000;stroke-width:1.0267179;stroke-linecap:round;stroke-linejoin:round;stroke-miterlimit:4;stroke-opacity:1;stroke-dasharray:none;stroke-dashoffset:0" />
    <path
       sodipodi:nodetypes="cc"
       inkscape:connector-curvature="0"
       id="path4752"
       d="m 357.29037,409.19305 3.77438,2.59272"
       style="fill:#112b00;stroke:#000000;stroke-width:1.0267179;stroke-linecap:round;stroke-linejoin:round;stroke-miterlimit:4;stroke-opacity:1;stroke-dasharray:none;stroke-dashoffset:0" />
    <path
       sodipodi:nodetypes="cc"
       inkscape:connector-curvature="0"
       id="path4754"
       d="m 349.42895,398.6497 c 0,0 11.53938,8.04964 8.29356,23.88925"
       style="fill:#112b00;stroke:#000000;stroke-width:1.0267179;stroke-linecap:round;stroke-linejoin:round;stroke-miterlimit:4;stroke-opacity:1;stroke-dasharray:none;stroke-dashoffset:0" />
    <path
       sodipodi:nodetypes="cc"
       inkscape:connector-curvature="0"
       id="path4756"
       d="m 348.89387,406.37475 c 0,0 2.04717,-9.94009 -1.3934,-11.10859"
       style="fill:#112b00;stroke:#000000;stroke-width:1.0267179;stroke-linecap:round;stroke-linejoin:round;stroke-miterlimit:4;stroke-opacity:1;stroke-dasharray:none;stroke-dashoffset:0" />
    <path
       inkscape:connector-curvature="0"
       id="path4758"
       d="m 311.8915,429.03059 c 0,0 -3.05108,-0.51933 1.49307,-4.80381"
       style="fill:none;stroke:#000000;stroke-width:1.0267179;stroke-linecap:round;stroke-linejoin:round;stroke-miterlimit:4;stroke-opacity:1;stroke-dasharray:none;stroke-dashoffset:0" />
    <path
       inkscape:connector-curvature="0"
       id="path4760"
       d="m 342.85664,425.13561 c 0,0 -1.03866,-2.98616 1.29833,-3.37566 2.33699,-0.3895 1.88258,2.27208 1.88258,2.27208 0,0 5.19331,1.81766 0.32458,5.84248 -4.86874,4.02482 -3.50549,-4.7389 -3.50549,-4.7389 z"
       style="fill:none;stroke:#000000;stroke-width:1.0267179;stroke-linecap:round;stroke-linejoin:round;stroke-miterlimit:4;stroke-opacity:1;stroke-dasharray:none;stroke-dashoffset:0" />
    <path
       inkscape:connector-curvature="0"
       id="path4762"
       d="m 343.31105,436.30124 c 0,0 3.44058,-2.07733 -0.19474,-2.98616 -3.83007,2.33699 0.19474,2.98616 0.19474,2.98616 z"
       style="fill:none;stroke:#000000;stroke-width:1.0267179;stroke-linecap:round;stroke-linejoin:round;stroke-miterlimit:4;stroke-opacity:1;stroke-dasharray:none;stroke-dashoffset:0" />
    <path
       inkscape:connector-curvature="0"
       id="path4764"
       d="m 327.37184,379.46192 c 0,0 0.50493,5.41654 3.62633,1.97383"
       style="fill:none;stroke:#000000;stroke-width:1.0267179;stroke-linecap:round;stroke-linejoin:round;stroke-miterlimit:4;stroke-opacity:1;stroke-dasharray:none;stroke-dashoffset:0" />
    <path
       inkscape:connector-curvature="0"
       id="path4766"
       d="m 330.44733,379.78325 c 0,0 1.42299,3.58042 5.27883,2.38694"
       style="fill:none;stroke:#000000;stroke-width:1.0267179;stroke-linecap:round;stroke-linejoin:round;stroke-miterlimit:4;stroke-opacity:1;stroke-dasharray:none;stroke-dashoffset:0" />
    <path
       inkscape:connector-curvature="0"
       id="path4768"
       d="m 337.14915,382.67513 0.22951,2.70826"
       style="fill:none;stroke:#000000;stroke-width:1.0267179;stroke-linecap:round;stroke-linejoin:round;stroke-miterlimit:4;stroke-opacity:1;stroke-dasharray:none;stroke-dashoffset:0" />
    <path
       inkscape:connector-curvature="0"
       id="path4770"
       d="m 330.26372,382.262 0.18361,4.68209"
       style="fill:none;stroke:#000000;stroke-width:1.0267179;stroke-linecap:round;stroke-linejoin:round;stroke-miterlimit:4;stroke-opacity:1;stroke-dasharray:none;stroke-dashoffset:0" />
    <path
       inkscape:connector-curvature="0"
       id="path4772"
       d="m 331.87032,392.36063 c 0,0 2.80008,6.33459 5.27883,3.94764 2.47875,-2.38694 2.57056,-2.66236 1.6525,-5.96737"
       style="fill:#677821;fill-opacity:1;stroke:#000000;stroke-width:1.0267179;stroke-linecap:round;stroke-linejoin:round;stroke-miterlimit:4;stroke-opacity:1;stroke-dasharray:none;stroke-dashoffset:0" />
    <path
       transform="matrix(0.20450695,0,0,0.22101333,274.46151,353.86829)"
       d="m 314.74678,159.31293 a 21.683548,17.883339 0 1 1 -43.3671,0 21.683548,17.883339 0 1 1 43.3671,0 z"
       sodipodi:ry="17.883339"
       sodipodi:rx="21.683548"
       sodipodi:cy="159.31293"
       sodipodi:cx="293.06323"
       id="path4774"
       style="fill:#ffe680;stroke:#000000;stroke-width:5;stroke-linecap:round;stroke-linejoin:round;stroke-miterlimit:4;stroke-opacity:1;stroke-dasharray:none;stroke-dashoffset:0"
       sodipodi:type="arc" />
    <path
       sodipodi:type="arc"
       style="fill:#ffe680;stroke:#000000;stroke-width:5;stroke-linecap:round;stroke-linejoin:round;stroke-miterlimit:4;stroke-opacity:1;stroke-dasharray:none;stroke-dashoffset:0"
       id="path4776"
       sodipodi:cx="293.06323"
       sodipodi:cy="159.31293"
       sodipodi:rx="21.683548"
       sodipodi:ry="17.883339"
       d="m 314.74678,159.31293 a 21.683548,17.883339 0 1 1 -43.3671,0 21.683548,17.883339 0 1 1 43.3671,0 z"
       transform="matrix(0.20333847,0,0,0.24398111,259.93142,353.12406)" />
    <path
       inkscape:connector-curvature="0"
       id="path4778"
       d="m 321.67988,381.38985 c 0,0 -2.61646,4.9116 -7.61987,6.83952"
       style="fill:none;stroke:#000000;stroke-width:1.0267179;stroke-linecap:round;stroke-linejoin:round;stroke-miterlimit:4;stroke-opacity:1;stroke-dasharray:none;stroke-dashoffset:0" />
    <path
       inkscape:connector-curvature="0"
       id="path4780"
       d="m 320.62412,382.90464 c 0,0 2.66236,3.80994 1.92792,5.87557"
       style="fill:#668000;stroke:#000000;stroke-width:1.0267179;stroke-linecap:round;stroke-linejoin:round;stroke-miterlimit:4;stroke-opacity:1;stroke-dasharray:none;stroke-dashoffset:0" />
    <path
       inkscape:connector-curvature="0"
       id="path4782"
       d="m 324.75538,399.24606 c 0,0 -0.13771,3.07549 1.97382,1.92792 2.11153,-1.14757 0.64264,-2.70827 0.64264,-2.70827 0,0 0.0918,2.38695 2.34105,1.74431 2.24924,-0.64264 0.1377,-2.43285 0.1377,-2.43285"
       style="fill:none;stroke:#000000;stroke-width:1.0267179;stroke-linecap:round;stroke-linejoin:round;stroke-miterlimit:4;stroke-opacity:1;stroke-dasharray:none;stroke-dashoffset:0" />
    <path
       inkscape:connector-curvature="0"
       id="path4784"
       d="m 330.99817,398.55752 0.87215,0.0459 c 0,0 -0.64264,1.6984 1.37709,1.6066 2.01972,-0.0918 0.91805,-1.74431 0.59673,-2.29515"
       style="fill:none;stroke:#000000;stroke-width:1.0267179;stroke-linecap:round;stroke-linejoin:round;stroke-miterlimit:4;stroke-opacity:1;stroke-dasharray:none;stroke-dashoffset:0" />
    <path
       inkscape:connector-curvature="0"
       id="path4786"
       d="m 333.52282,400.62315 c 0,0 3.30501,14.45939 4.31487,14.5971"
       style="fill:none;stroke:#000000;stroke-width:1.0267179;stroke-linecap:round;stroke-linejoin:round;stroke-miterlimit:4;stroke-opacity:1;stroke-dasharray:none;stroke-dashoffset:0" />
    <path
       inkscape:connector-curvature="0"
       id="path4788"
       d="m 326.04066,401.67891 c 0,0 2.43285,16.0201 1.46889,16.61684"
       style="fill:none;stroke:#000000;stroke-width:1.0267179;stroke-linecap:round;stroke-linejoin:round;stroke-miterlimit:4;stroke-opacity:1;stroke-dasharray:none;stroke-dashoffset:0" />
    <path
       inkscape:connector-curvature="0"
       id="path4790"
       d="m 327.50955,420.13186 c 0,0 -0.59674,-2.75417 1.6066,-2.43285 2.20334,0.32132 1.46889,2.11153 1.46889,2.11153"
       style="fill:none;stroke:#000000;stroke-width:1.0267179;stroke-linecap:round;stroke-linejoin:round;stroke-miterlimit:4;stroke-opacity:1;stroke-dasharray:none;stroke-dashoffset:0" />
    <path
       inkscape:connector-curvature="0"
       id="path4792"
       d="m 330.67685,419.2138 1.7443,-0.87215 c 0,0 -1.6066,-2.06563 1.4689,-2.66237 3.07549,-0.59674 1.28528,2.15744 1.28528,2.15744 l 0.91805,-0.41313 c 0,0 -0.73444,-2.43285 1.79022,-2.34105 2.52465,0.0918 2.52465,1.5607 1.05576,3.58043"
       style="fill:none;stroke:#000000;stroke-width:1.0267179;stroke-linecap:round;stroke-linejoin:round;stroke-miterlimit:4;stroke-opacity:1;stroke-dasharray:none;stroke-dashoffset:0" />
  </g>
</svg>
